<svg width="157" height="111" viewBox="0 0 157 111" fill="none" xmlns="http://www.w3.org/2000/svg">
<path d="M80.6391 103.798L147.953 66.4786C150.096 65.3483 151.933 63.4963 149.845 62.2813L82.2915 25.7608C81.2789 25.1717 79.7403 24.7851 78.708 25.3485L8.05802 63.8166C5.91497 64.9838 5.53032 68.2348 7.66552 69.413L71.7686 103.732C73.1135 104.465 74.639 104.857 76.1945 104.868C77.75 104.88 79.2819 104.511 80.6391 103.798Z" fill="url(#paint0_linear)"/>
<path style="mix-blend-mode:multiply" d="M51.3625 79.7812L40.663 85.3519C40.663 85.3519 50.6599 92.7452 55.1462 94.5272L65.8575 88.5441" fill="url(#paint1_linear)"/>
<path style="mix-blend-mode:multiply" d="M50.9269 57.5087L40.2273 63.0794C40.2273 63.0794 42.7903 66.8828 47.2923 68.6501L58.8554 62.667" fill="url(#paint2_linear)"/>
<path style="mix-blend-mode:multiply" d="M108.801 79.4764C108.801 79.4764 121.734 72.6834 121.812 72.5693L101.72 63.0811L90.4202 69.2004L108.801 79.4764Z" fill="url(#paint3_linear)"/>
<path d="M123.638 51.7358L140.044 61.2755C140.194 61.3626 140.318 61.4851 140.403 61.6307C140.487 61.7764 140.53 61.9402 140.526 62.106C140.523 62.2718 140.473 62.4339 140.382 62.5762C140.291 62.7185 140.163 62.8362 140.009 62.9176L115.108 76.1171C114.762 76.3041 114.37 76.4026 113.97 76.4026C113.571 76.4026 113.178 76.3041 112.832 76.1171L96.5001 67.1112C95.3226 66.1981 95.6444 64.8432 96.5001 64.4014L121.255 51.7063C121.618 51.5083 122.031 51.4064 122.451 51.4116C122.87 51.4168 123.281 51.5288 123.638 51.7358Z" fill="#68E1FD"/>
<path d="M123.638 51.0801L140.044 60.6198C140.194 60.707 140.318 60.8294 140.403 60.9751C140.487 61.1207 140.53 61.2846 140.526 61.4504C140.523 61.6162 140.473 61.7782 140.382 61.9206C140.291 62.0629 140.163 62.1806 140.009 62.262L115.112 75.4725C114.766 75.6596 114.374 75.758 113.974 75.758C113.575 75.758 113.182 75.6596 112.836 75.4725L96.504 66.4667C96.3125 66.3624 96.1536 66.2128 96.0431 66.0329C95.9327 65.8529 95.8745 65.6489 95.8745 65.4413C95.8745 65.2336 95.9327 65.0296 96.0431 64.8496C96.1536 64.6697 96.3125 64.5201 96.504 64.4159L121.259 51.0654C121.62 50.8658 122.032 50.7618 122.45 50.7644C122.869 50.767 123.28 50.8761 123.638 51.0801Z" fill="white"/>
<path d="M122.546 51.5943L139.035 61.3292L114.374 74.5655L97.3596 65.1804L122.546 51.5943Z" fill="#606060"/>
<path d="M104.786 70.5205C105.109 70.5205 105.371 70.4051 105.371 70.2628C105.371 70.1205 105.109 70.0051 104.786 70.0051C104.463 70.0051 104.201 70.1205 104.201 70.2628C104.201 70.4051 104.463 70.5205 104.786 70.5205Z" fill="#383097"/>
<path style="mix-blend-mode:multiply" d="M123.155 67.7285C123.155 67.7285 125.302 63.9839 125.314 63.9655L124.945 63.7925L120.384 66.2631L123.155 67.7285Z" fill="url(#paint4_linear)"/>
<path d="M142.438 53.9188C142.433 53.892 142.433 53.8645 142.438 53.8378C142.214 53.7279 141.973 53.6521 141.724 53.6132L126.416 62.1845C126.416 62.1845 125.498 62.8583 127.201 63.7677L142.741 55.1043C142.726 54.6941 142.623 54.2909 142.438 53.9188Z" fill="#CCCCCC"/>
<path d="M126.385 62.1801C126.385 62.1801 124.603 64.0504 124.572 64.1719C124.54 64.2934 127.15 63.7632 127.15 63.7632" fill="#CCCCCC"/>
<path d="M142.685 55.1097C142.967 54.9572 142.985 54.4921 142.726 54.0709C142.466 53.6496 142.028 53.4318 141.746 53.5843C141.465 53.7368 141.447 54.202 141.706 54.6232C141.965 55.0444 142.403 55.2623 142.685 55.1097Z" fill="#F2F2F2"/>
<path d="M65.0804 50.2258L71.5096 53.1308C71.7511 53.2403 71.9564 53.4094 72.1035 53.62C72.2505 53.8306 72.3337 54.0747 72.3441 54.3262C72.3546 54.5778 72.292 54.8272 72.163 55.0479C72.0339 55.2686 71.8433 55.4523 71.6116 55.5792L56.3708 63.9186C56.0413 64.0987 55.6504 64.1525 55.2797 64.0688C54.9089 63.9851 54.5869 63.7704 54.3808 63.4694L50.6796 58.0755" fill="#56403D"/>
<path d="M30.0969 36.2568L81.381 8.54344C81.7327 8.3525 82.1319 8.25192 82.5383 8.25183C82.9447 8.25174 83.344 8.35216 83.6958 8.54294C84.0477 8.73373 84.3397 9.00815 84.5424 9.33855C84.7452 9.66895 84.8515 10.0436 84.8507 10.4249V39.2539C84.8504 39.5703 84.7614 39.8812 84.5926 40.1552C84.4239 40.4292 84.1812 40.6567 83.889 40.815L29.2256 70.4135C29.0369 70.5156 28.8229 70.5694 28.6051 70.5693C28.3873 70.5693 28.1733 70.5154 27.9847 70.4132C27.7961 70.3109 27.6396 70.1639 27.5308 69.9868C27.422 69.8098 27.3649 69.609 27.3651 69.4046V40.6861C27.3664 39.7879 27.6195 38.9059 28.099 38.1285C28.5785 37.3511 29.2675 36.7056 30.0969 36.2568Z" fill="#68E1FD"/>
<path d="M81.373 10.722L31.6512 37.5591C31.12 37.8459 30.6789 38.259 30.3722 38.7568C30.0656 39.2545 29.9043 39.8193 29.9045 40.3942V62.0067C29.9051 62.2133 29.9635 62.4162 30.0737 62.5951C30.184 62.7741 30.3424 62.9227 30.533 63.0263C30.7237 63.1299 30.9399 63.1847 31.1602 63.1854C31.3805 63.1861 31.5972 63.1326 31.7885 63.0303L82.4995 35.7329C82.689 35.6312 82.8465 35.4843 82.956 35.3072C83.0656 35.13 83.1234 34.9289 83.1236 34.7241V11.683C83.1228 11.4909 83.0687 11.3023 82.9665 11.1358C82.8643 10.9693 82.7176 10.8307 82.5408 10.7336C82.364 10.6366 82.1634 10.5845 81.9586 10.5825C81.7538 10.5804 81.552 10.6285 81.373 10.722Z" fill="white"/>
<path d="M61.7413 50.5301C61.8704 49.9011 61.5006 49.3055 60.9152 49.1998C60.3298 49.094 59.7506 49.5182 59.6215 50.1472C59.4924 50.7761 59.8622 51.3717 60.4476 51.4775C61.033 51.5832 61.6122 51.1591 61.7413 50.5301Z" fill="#AB643C"/>
<path d="M83.9008 62.6897L97.3164 69.8804C97.4566 69.9563 97.573 70.0655 97.654 70.1971C97.7349 70.3286 97.7775 70.4778 97.7775 70.6296C97.7775 70.7815 97.7349 70.9307 97.654 71.0622C97.573 71.1937 97.4566 71.3029 97.3164 71.3789L60.0525 91.4892C59.6007 91.7335 59.0883 91.8621 58.5669 91.8621C58.0454 91.8621 57.5331 91.7335 57.0812 91.4892L44.5212 84.6888C44.3754 84.6096 44.2543 84.4957 44.1701 84.3587C44.0859 84.2217 44.0416 84.0664 44.0416 83.9083C44.0416 83.7501 44.0859 83.5948 44.1701 83.4578C44.2543 83.3208 44.3754 83.207 44.5212 83.1277L82.2248 62.697C82.4786 62.5572 82.7674 62.4829 83.0617 62.4816C83.3561 62.4803 83.6456 62.5521 83.9008 62.6897Z" fill="#974C26"/>
<path d="M63.6281 74.1547L67.4589 76.2827L64.6172 77.8328C63.8322 77.3946 61.5165 76.1207 60.7747 75.7121L63.6281 74.1547Z" fill="white"/>
<path d="M67.824 71.8682L71.6548 73.9963L68.0556 75.9587C67.4276 75.6163 65.1079 74.3313 64.213 73.838L67.824 71.8682Z" fill="white"/>
<path d="M83.0687 63.5656L86.9584 65.6605L83.4965 67.5456C82.947 67.2474 80.5999 65.9477 79.6539 65.4249L83.0687 63.5656Z" fill="white"/>
<path d="M74.8732 68.0166L78.704 70.1447L75.8623 71.6911C75.1912 71.3229 72.8794 70.0453 72.0198 69.5703L74.8732 68.0166Z" fill="white"/>
<path d="M79.0691 65.7403L82.8999 67.8684L79.285 69.8309C78.8611 69.6026 76.4511 68.2698 75.4424 67.7101L79.0691 65.7403Z" fill="white"/>
<path d="M60.1899 76.028L64.0207 78.1561L61.3007 79.6288C60.4843 79.1796 58.1843 77.9094 57.4581 77.5081L60.1899 76.028Z" fill="white"/>
<path d="M71.435 69.9034L75.2658 72.0316L72.2553 73.67C71.5488 73.3018 69.2448 72.0095 68.4127 71.5493L71.435 69.9034Z" fill="white"/>
<path d="M56.8732 77.8369L60.704 79.965L57.1048 81.9274C56.3512 81.515 54.0551 80.2448 53.2622 79.8066L56.8732 77.8369Z" fill="white"/>
<path d="M52.6735 80.1234L56.5043 82.2515L50.0477 85.7678L46.1541 83.6728L52.6735 80.1234Z" fill="white"/>
<path d="M87.4568 66.2823L91.3464 68.3773L86.3185 71.1166C85.6591 70.7484 83.3473 69.4782 82.476 68.9958L87.4568 66.2823Z" fill="white"/>
<path d="M77.6915 71.6005L81.5223 73.7286L78.6806 75.2787C77.9192 74.8627 75.623 73.5924 74.838 73.158L77.6915 71.6005Z" fill="white"/>
<path d="M70.6499 75.4385L74.4807 77.5666L70.8815 79.5291C70.1593 79.1351 67.8593 77.8612 67.0389 77.4083L70.6499 75.4385Z" fill="white"/>
<path d="M74.2532 73.4738L78.084 75.6019L75.0735 77.2403C74.2885 76.8096 71.9846 75.5356 71.231 75.1196L74.2532 73.4738Z" fill="white"/>
<path d="M66.4464 77.725L70.2772 79.8532L67.4355 81.4033C66.5563 80.921 64.2444 79.6397 63.5929 79.2825L66.4464 77.725Z" fill="white"/>
<path d="M63.008 79.6017L66.8388 81.7298L64.1188 83.2025C63.2239 82.7129 60.9082 81.4279 60.2762 81.0818L63.008 79.6017Z" fill="white"/>
<path d="M81.8872 69.3106L85.718 71.4387L82.1188 73.3975C81.5497 73.0882 79.2065 71.7922 78.2762 71.2767L81.8872 69.3106Z" fill="white"/>
<path d="M59.6914 81.4072L63.5222 83.5354L59.923 85.4978C59.0909 85.0413 56.783 83.7673 56.0804 83.377L59.6914 81.4072Z" fill="white"/>
<path d="M59.3224 85.8222L54.4319 88.4842L50.5422 86.3892L55.4917 83.6904L59.3224 85.8222Z" fill="white"/>
<path d="M62.1876 85.4586L65.0372 87.0455L61.7323 88.8386L58.8396 87.2811L62.1876 85.4586Z" fill="white"/>
<path d="M61.0495 89.2097L58.2392 90.7376L55.3425 89.184L58.2039 87.6266L61.0495 89.2097Z" fill="white"/>
<path d="M92.2532 69.0769L95.2362 70.627L91.8529 72.4679L88.9248 70.8884L92.2532 69.0769Z" fill="white"/>
<path d="M88.2929 71.2347L91.1699 72.8363L87.5589 74.8025L84.6348 73.2266L88.2929 71.2347Z" fill="white"/>
<path d="M83.9989 73.572L86.872 75.1736L65.7241 86.6684L62.8235 85.1073L83.9989 73.572Z" fill="white"/>
<path style="mix-blend-mode:multiply" d="M93.4385 39.6671L87.9435 42.7119C87.9435 42.7119 89.6391 45.5027 93.831 47.1522L100.213 43.9343" fill="url(#paint5_linear)"/>
<path d="M97.8934 44.1844C100.701 44.1844 102.976 42.681 102.976 40.8265C102.976 38.972 100.701 37.4686 97.8934 37.4686C95.0862 37.4686 92.8105 38.972 92.8105 40.8265C92.8105 42.681 95.0862 44.1844 97.8934 44.1844Z" fill="#68E1FD"/>
<path d="M97.8973 40.3039C100 40.3039 101.705 39.6495 101.705 38.8422C101.705 38.035 100 37.3806 97.8973 37.3806C95.7946 37.3806 94.0901 38.035 94.0901 38.8422C94.0901 39.6495 95.7946 40.3039 97.8973 40.3039Z" fill="#974C26"/>
<path d="M98.1485 38.8767C98.4468 38.4827 98.749 38.0703 99.063 37.6064C99.4555 37.0136 99.848 36.4098 100.19 35.7839C100.511 35.2306 100.785 34.6544 101.01 34.0608C101.26 33.416 101.461 32.7553 101.61 32.0836C101.65 31.9069 101.681 31.7155 101.716 31.5535C101.716 31.4725 101.716 31.4798 101.716 31.4909C101.716 31.5019 101.716 31.4356 101.716 31.3362C101.752 30.968 101.775 30.5999 101.779 30.2538C101.797 29.0016 101.539 27.7595 101.022 26.605C99.6474 28.4746 98.7208 30.6011 98.3055 32.8384C98.2793 32.971 98.2545 33.1047 98.2309 33.2397C98.2309 33.2397 98.1917 33.4827 98.176 33.5822L98.1367 33.9172C98.1184 34.0866 98.1014 34.2572 98.0857 34.429C98.0308 35.088 98.0033 35.7471 98.0072 36.4061C98.0386 37.2309 98.0779 38.0556 98.1485 38.8767ZM99.7656 29.024C99.8572 28.9258 99.9527 28.8301 100.052 28.7368C100.032 28.8217 100.032 28.9097 100.052 28.9946C99.9569 28.9898 99.8614 28.9998 99.7695 29.024H99.7656Z" fill="#999A1C"/>
<path d="M98.2467 38.9301C98.2742 38.4478 98.2859 37.9471 98.282 37.3985C98.282 36.6953 98.2467 35.9957 98.18 35.2962C98.1315 34.6675 98.0305 34.0433 97.8777 33.4295C97.7174 32.7596 97.5062 32.1013 97.2458 31.4597C97.1752 31.2903 97.1045 31.1246 97.026 30.9589C96.9907 30.8816 96.9985 30.889 97.0064 30.9L96.9279 30.7638C96.7473 30.4435 96.5629 30.1268 96.3588 29.8212C95.6499 28.7575 94.7145 27.8424 93.6112 27.1335C93.5316 29.4052 93.9775 31.6662 94.9183 33.7608C94.9732 33.886 95.0295 34.0087 95.087 34.129L95.2401 34.4456L95.4011 34.7512C95.4822 34.9034 95.5659 35.0556 95.6523 35.2078C95.9859 35.7895 96.3431 36.3565 96.7238 36.9125C97.2026 37.6084 97.7129 38.2785 98.2467 38.9301ZM93.9292 29.8212C93.9501 29.6911 93.975 29.5684 94.0037 29.4531C94.0302 29.5362 94.0757 29.6128 94.1372 29.6776C94.0604 29.7167 93.9902 29.7663 93.9292 29.8249V29.8212Z" fill="#999A1C"/>
<path d="M98.2702 39.1875C98.1171 38.9187 97.9523 38.6462 97.7639 38.348C97.5205 37.9798 97.2615 37.6117 96.9789 37.2435C96.7328 36.9194 96.4598 36.6141 96.1625 36.3304C95.845 36.017 95.5039 35.7254 95.142 35.4578L94.8672 35.2479C94.8201 35.2185 94.828 35.2185 94.8358 35.2221L94.7456 35.1706C94.5375 35.0528 94.3295 34.9386 94.1136 34.8355C93.367 34.4756 92.5493 34.2638 91.7115 34.2133C92.4499 35.4619 93.4675 36.5459 94.6945 37.3907L94.9143 37.5417L95.1027 37.6669L95.2951 37.781L95.5894 37.9504C95.9689 38.1639 96.3614 38.3627 96.7669 38.5468C97.2497 38.7862 97.756 38.996 98.2702 39.1875ZM92.8066 35.5793C92.7726 35.5032 92.7412 35.4259 92.7124 35.3473C92.7551 35.3844 92.8061 35.412 92.8616 35.4283C92.835 35.4757 92.8165 35.5266 92.8066 35.5793Z" fill="#999A1C"/>
<path d="M98.1485 38.8767C98.4468 38.4827 98.749 38.0703 99.063 37.6064C99.4555 37.0136 99.848 36.4098 100.19 35.7839C100.511 35.2306 100.785 34.6544 101.01 34.0608C101.26 33.416 101.461 32.7553 101.61 32.0836C101.65 31.9069 101.681 31.7155 101.716 31.5535C101.716 31.4725 101.716 31.4798 101.716 31.4909C101.716 31.5019 101.716 31.4356 101.716 31.3362C101.752 30.968 101.775 30.5999 101.779 30.2538C101.797 29.0016 101.539 27.7595 101.022 26.605C99.6474 28.4746 98.7208 30.6011 98.3055 32.8384C98.2793 32.971 98.2545 33.1047 98.2309 33.2397C98.2309 33.2397 98.1917 33.4827 98.176 33.5822L98.1367 33.9172C98.1184 34.0866 98.1014 34.2572 98.0857 34.429C98.0308 35.088 98.0033 35.7471 98.0072 36.4061C98.0386 37.2309 98.0779 38.0556 98.1485 38.8767ZM99.7656 29.024C99.8572 28.9258 99.9527 28.8301 100.052 28.7368C100.032 28.8217 100.032 28.9097 100.052 28.9946C99.9569 28.9898 99.8614 28.9998 99.7695 29.024H99.7656Z" fill="#999A1C"/>
<path d="M98.2467 38.9301C98.2742 38.4478 98.2859 37.9471 98.282 37.3985C98.282 36.6953 98.2467 35.9957 98.18 35.2962C98.1315 34.6675 98.0305 34.0433 97.8777 33.4295C97.7174 32.7596 97.5062 32.1013 97.2458 31.4597C97.1752 31.2903 97.1045 31.1246 97.026 30.9589C96.9907 30.8816 96.9985 30.889 97.0064 30.9L96.9279 30.7638C96.7473 30.4435 96.5629 30.1268 96.3588 29.8212C95.6499 28.7575 94.7145 27.8424 93.6112 27.1335C93.5316 29.4052 93.9775 31.6662 94.9183 33.7608C94.9732 33.886 95.0295 34.0087 95.087 34.129L95.2401 34.4456L95.4011 34.7512C95.4822 34.9034 95.5659 35.0556 95.6523 35.2078C95.9859 35.7895 96.3431 36.3565 96.7238 36.9125C97.2026 37.6084 97.7129 38.2785 98.2467 38.9301ZM93.9292 29.8212C93.9501 29.6911 93.975 29.5684 94.0037 29.4531C94.0302 29.5362 94.0757 29.6128 94.1372 29.6776C94.0604 29.7167 93.9902 29.7663 93.9292 29.8249V29.8212Z" fill="#999A1C"/>
<path d="M98.2702 39.1875C98.1171 38.9187 97.9523 38.6462 97.7639 38.348C97.5205 37.9798 97.2615 37.6117 96.9789 37.2435C96.7328 36.9194 96.4598 36.6141 96.1625 36.3304C95.845 36.017 95.5039 35.7254 95.142 35.4578L94.8672 35.2479C94.8201 35.2185 94.828 35.2185 94.8358 35.2221L94.7456 35.1706C94.5375 35.0528 94.3295 34.9386 94.1136 34.8355C93.367 34.4756 92.5493 34.2638 91.7115 34.2133C92.4499 35.4619 93.4675 36.5459 94.6945 37.3907L94.9143 37.5417L95.1027 37.6669L95.2951 37.781L95.5894 37.9504C95.9689 38.1639 96.3614 38.3627 96.7669 38.5468C97.2497 38.7862 97.756 38.996 98.2702 39.1875ZM92.8066 35.5793C92.7726 35.5032 92.7412 35.4259 92.7124 35.3473C92.7551 35.3844 92.8061 35.412 92.8616 35.4283C92.835 35.4757 92.8165 35.5266 92.8066 35.5793Z" fill="#999A1C"/>
<path d="M40.7101 53.5746L58.8397 44.5283L47.9596 34.7824L40.7101 53.5746Z" fill="#E88831"/>
<path d="M72.9657 32.1997C76.7765 32.1997 79.8658 29.3017 79.8658 25.727C79.8658 22.1522 76.7765 19.2543 72.9657 19.2543C69.1548 19.2543 66.0656 22.1522 66.0656 25.727C66.0656 29.3017 69.1548 32.1997 72.9657 32.1997Z" fill="#7ACC92"/>
<path d="M36.895 40.8561C35.796 40.267 34.8069 41.8575 35.9059 42.4466C39.3167 44.2875 36.5849 48.2934 34.0454 49.4421C32.9072 49.9539 33.9002 51.5444 35.0345 51.0327C38.9988 49.2396 41.605 43.3487 36.895 40.8561Z" fill="#56403D"/>
<path d="M68.295 36.3533C67.251 31.7767 60.6844 34.586 61.8266 38.7354C62.3212 40.5322 64.4093 41.5778 66.2148 40.6868C67.0041 40.2622 67.6302 39.6146 68.0038 38.8364C68.3773 38.0581 68.4793 37.1891 68.295 36.3533ZM66.4032 37.502C66.3616 37.8419 66.2294 38.1664 66.0188 38.4457C65.8082 38.725 65.526 38.95 65.1982 39.0999C63.6988 39.6375 63.7342 37.8518 64.1031 36.9976C64.7625 35.4144 66.725 35.6169 66.3953 37.5167L66.4032 37.502Z" fill="#56403D"/>
<path d="M65.2571 95.1639C65.2973 94.9257 65.3991 94.7005 65.5538 94.5079C65.7085 94.3153 65.9112 94.1613 66.1441 94.0593L68.9898 92.5203L73.3858 90.1308L78.6374 87.2773L84.2266 84.2435L89.6313 81.298L94.3413 78.7464L97.815 76.8613L99.6401 75.8709C99.6401 75.9077 99.7029 75.9077 99.7421 75.8966C99.9589 75.8471 100.186 75.8507 100.4 75.9071C100.615 75.9635 100.811 76.0709 100.969 76.2189C101.126 76.3669 101.241 76.5504 101.301 76.7519C101.361 76.9534 101.365 77.1661 101.312 77.3694C101.1 78.1426 100.398 78.8237 99.7421 79.295C97.617 80.7263 95.399 82.0322 93.101 83.2052V82.4357C94.6475 81.6404 97.9837 79.8583 99.381 78.496L98.7138 78.8642L96.8769 79.8731L94.1098 81.39L90.6558 83.2825L86.7425 85.4437L82.637 87.6934L78.5707 89.9209L74.787 91.9975L71.541 93.7906L69.0408 95.1602C68.2793 95.5799 67.4512 96.1469 66.5641 96.309C66.3967 96.3201 66.2286 96.2987 66.0704 96.2462C65.9122 96.1936 65.7672 96.1111 65.6446 96.0036C65.5219 95.8961 65.4242 95.7661 65.3575 95.6216C65.2909 95.4772 65.2567 95.3213 65.2571 95.1639Z" fill="#68E1FD"/>
<path style="mix-blend-mode:multiply" d="M87.504 55.9031L81.64 59.18C81.64 59.18 85.4904 62.641 89.9767 64.4119L95.4285 61.0725" fill="url(#paint6_linear)"/>
<path d="M86.9426 53.5641V56.1377L95.4167 61.0603L105.59 55.2283V53.0339" fill="#E54C3C"/>
<path d="M105.59 53.0355L96.9514 48.1865L86.9426 53.5657L95.5816 58.4883L105.59 53.0355Z" fill="#F5604B"/>
<defs>
<linearGradient id="paint0_linear" x1="119.671" y1="33.7048" x2="0.145421" y2="169.7" gradientUnits="userSpaceOnUse">
<stop stop-color="#F07E24" stop-opacity="0.76"/>
<stop offset="1" stop-color="#F8B119" stop-opacity="0.69"/>
</linearGradient>
<linearGradient id="paint1_linear" x1="63.95" y1="78.7798" x2="49.629" y2="91.205" gradientUnits="userSpaceOnUse">
<stop stop-color="#D4A397"/>
<stop offset="1" stop-color="white"/>
</linearGradient>
<linearGradient id="paint2_linear" x1="2821.02" y1="1742.64" x2="2466.17" y2="2225.57" gradientUnits="userSpaceOnUse">
<stop stop-color="#D4A397"/>
<stop offset="1" stop-color="white"/>
</linearGradient>
<linearGradient id="paint3_linear" x1="110.634" y1="64.6422" x2="103.623" y2="75.6519" gradientUnits="userSpaceOnUse">
<stop offset="0.01" stop-color="#4D4D4D"/>
<stop offset="1" stop-color="white"/>
</linearGradient>
<linearGradient id="paint4_linear" x1="1684.31" y1="736.532" x2="1661.67" y2="778.307" gradientUnits="userSpaceOnUse">
<stop offset="0.01" stop-color="#4D4D4D"/>
<stop offset="1" stop-color="white"/>
</linearGradient>
<linearGradient id="paint5_linear" x1="97.1594" y1="40.1751" x2="92.0415" y2="46.1529" gradientUnits="userSpaceOnUse">
<stop stop-color="#78B46A"/>
<stop offset="0.03" stop-color="#7F3500"/>
<stop offset="1" stop-color="white"/>
</linearGradient>
<linearGradient id="paint6_linear" x1="3394.88" y1="1336.73" x2="3220.62" y2="1566.65" gradientUnits="userSpaceOnUse">
<stop stop-color="#D4A397"/>
<stop offset="1" stop-color="white"/>
</linearGradient>
</defs>
</svg>
