<svg width="169" height="128" viewBox="0 0 169 128" fill="none" xmlns="http://www.w3.org/2000/svg">
<g clip-path="url(#clip0)">
<path opacity="0.24" d="M152.14 72.7876C147.45 84.9106 134.749 91.873 127.66 102.754C126.883 103.923 126.201 105.144 125.533 106.365C124.053 109.034 122.667 111.75 120.869 114.203C115.023 122.204 105.24 126.641 95.425 127.711C85.6103 128.781 75.7048 126.805 66.2243 124.016C58.6585 121.787 50.7481 118.663 46.2734 112.138C44.7447 109.92 43.6824 107.394 41.9905 105.308C40.9104 104.037 39.6939 102.89 38.3631 101.887C37.9796 101.582 37.6039 101.288 37.2204 100.991C31.5876 96.6457 25.8744 92.2402 21.5396 86.5796C17.2048 80.9191 14.3495 73.7562 15.2901 66.6818C16.2125 59.7897 20.5783 53.8376 25.5505 49.0024C30.5226 44.1673 36.2462 40.1497 41.0189 35.1193C50.5901 25.0428 56.3214 11.006 68.2245 3.85092C82.5969 -4.79872 103.543 2.54905 115.718 11.8106C125.613 19.3224 133.443 29.1749 141.607 38.5484C145.476 42.9982 149.507 47.4766 151.816 52.9106C154.467 59.2472 154.583 66.3672 152.14 72.7876Z" fill="#F49C4E"/>
<path opacity="0.24" d="M125.533 106.365C124.053 109.034 122.667 111.75 120.869 114.203C115.023 122.204 105.24 126.641 95.425 127.711C85.6102 128.781 75.7048 126.805 66.2242 124.016C58.6585 121.787 50.7481 118.663 46.2734 112.138C44.7447 109.92 43.6824 107.394 41.9905 105.308C40.9104 104.037 39.6939 102.89 38.363 101.887C43.4984 100.413 48.9473 99.8535 54.2952 99.3119C67.6648 97.9684 81.1252 96.6249 94.5363 97.6325C102.278 98.2236 118.524 99.1817 125.533 106.365Z" fill="#F07E24"/>
<path d="M150.147 14.0394H114.404V67.1505H150.147V14.0394Z" fill="#68E1FD"/>
<path d="M101.952 46.2294L112.409 43.6517L93.873 82.4345L88.5485 72.7876L101.952 46.2294Z" fill="#68E1FD"/>
<path d="M101.952 46.2294L112.409 43.6517L93.873 82.4345L88.5485 72.7876L101.952 46.2294Z" fill="url(#paint0_linear)"/>
<path d="M100.146 49.8617L106.421 49.1925L94.158 75.9382L90.5461 69.6345L100.146 49.8617Z" fill="white"/>
<path opacity="0.24" d="M99.7209 63.0054C98.7234 63.2163 97.6015 63.5261 97.1299 64.427C96.8864 64.9035 96.8708 65.4685 96.7853 65.9893C96.6622 66.7203 96.3828 67.4158 95.9666 68.028L94.1658 64.8436C94.0781 64.7136 94.0221 64.5646 94.0026 64.4088C94.0228 64.1864 94.1136 63.9765 94.2617 63.8099C95.1615 62.5192 95.9117 61.1293 96.4977 59.6674C96.9745 58.4749 97.1558 57.1704 98.0394 56.1966C98.4902 55.6993 99.5188 54.7229 100.281 54.8401C101.358 55.0041 100.555 56.6783 100.405 57.3449C100.291 57.8318 99.6743 63.0158 99.7209 63.0054Z" fill="#68E1FD"/>
<path d="M100.156 59.722C100.016 60.3383 99.7813 60.9288 99.4593 61.4718C97.9927 64.2682 93.4999 77.1541 92.7563 80.1432C92.3702 79.4141 91.1214 77.0968 90.7327 76.3678C90.4736 75.8991 90.2275 75.3992 90.2508 74.868C90.2945 74.4749 90.4151 74.0944 90.6058 73.7484C91.4142 72.0143 92.2355 70.2646 93.3911 68.7414C94.2047 67.6661 94.0855 66.5412 94.9172 65.4789C96.3811 63.6146 97.5575 61.6827 98.2441 59.4148C98.3529 59.0581 100.674 57.363 101.25 57.5635C101.675 57.7093 100.221 59.3393 100.156 59.722Z" fill="url(#paint1_linear)"/>
<path d="M91.1162 58.9539C90.9011 59.735 96.6039 58.6519 97.8528 58.4878C99.0239 58.3342 100.231 58.165 101.252 57.5635C101.107 57.6494 100.4 57.3891 100.164 57.4021C99.6328 57.4255 99.0913 57.5375 98.5601 57.5974C97.4771 57.7093 91.1343 58.2561 91.1162 58.9539Z" fill="#68E1FD"/>
<path d="M91.1162 58.9539C90.9011 59.735 96.6039 58.6519 97.8528 58.4878C99.0239 58.3342 100.231 58.165 101.252 57.5635C101.107 57.6494 100.4 57.3891 100.164 57.4021C99.6328 57.4255 99.0913 57.5375 98.5601 57.5974C97.4771 57.7093 91.1343 58.2561 91.1162 58.9539Z" fill="url(#paint2_linear)"/>
<path d="M77.0884 116.312C81.4229 116.312 84.9366 115.056 84.9366 113.508C84.9366 111.959 81.4229 110.703 77.0884 110.703C72.754 110.703 69.2402 111.959 69.2402 113.508C69.2402 115.056 72.754 116.312 77.0884 116.312Z" fill="#F07E24"/>
<path opacity="0.65" d="M77.0884 115.213C81.4229 115.213 84.9366 114.204 84.9366 112.958C84.9366 111.713 81.4229 110.703 77.0884 110.703C72.754 110.703 69.2402 111.713 69.2402 112.958C69.2402 114.204 72.754 115.213 77.0884 115.213Z" fill="#FBFBFB"/>
<path d="M75.6451 94.2555H78.2128V110.805C78.2128 111.15 78.0764 111.481 77.8334 111.725C77.5904 111.97 77.2609 112.107 76.9173 112.107C76.5737 112.107 76.2442 111.97 76.0013 111.725C75.7583 111.481 75.6218 111.15 75.6218 110.805V94.2555H75.6451Z" fill="#F07E24"/>
<path d="M64.1177 90.8836C64.1359 92.1464 64.2369 93.4874 64.9961 94.4976C65.89 95.6797 67.4783 96.0911 68.9551 96.1406C69.7431 96.1872 70.533 96.091 71.2871 95.8568C72.0467 95.6199 72.7048 95.1329 73.1552 94.4742C72.2302 94.0081 71.1031 94.37 70.0978 94.1279C69.603 93.9874 69.1365 93.7609 68.7194 93.4587C67.1648 92.4302 65.7164 90.9123 65.6283 89.0454C65.5842 88.1054 65.9159 87.1629 65.7552 86.2255C65.6801 85.7829 65.237 84.7414 64.6333 85.3116C64.1721 85.7438 64.2499 87.366 64.2032 87.97C64.1203 88.9386 64.1022 89.9124 64.1177 90.8836Z" fill="#68E1FD"/>
<path d="M64.1177 90.8836C64.1359 92.1464 64.2369 93.4874 64.9961 94.4976C65.89 95.6797 67.4783 96.0911 68.9551 96.1406C69.7431 96.1872 70.533 96.091 71.2871 95.8568C72.0467 95.6199 72.7048 95.1329 73.1552 94.4742C72.2302 94.0081 71.1031 94.37 70.0978 94.1279C69.603 93.9874 69.1365 93.7609 68.7194 93.4587C67.1648 92.4302 65.7164 90.9123 65.6283 89.0454C65.5842 88.1054 65.9159 87.1629 65.7552 86.2255C65.6801 85.7829 65.237 84.7414 64.6333 85.3116C64.1721 85.7438 64.2499 87.366 64.2032 87.97C64.1203 88.9386 64.1022 89.9124 64.1177 90.8836Z" fill="url(#paint3_linear)"/>
<path d="M72.9272 89.475C71.5773 89.5687 70.3051 90.1233 69.5874 90.9357C69.2434 91.2956 69.0215 91.7557 68.9535 92.2501C68.8856 92.7444 68.975 93.2477 69.2091 93.6879C69.7092 94.6044 70.8233 95.323 72.1188 95.724C73.4577 96.1158 74.85 96.2915 76.2437 96.2447C78.6596 96.2113 81.0516 95.7594 83.3146 94.909C83.597 94.8144 83.8648 94.6803 84.1101 94.5106C84.2767 94.3745 84.421 94.2128 84.5376 94.0316C84.8566 93.5774 85.1104 93.0804 85.2916 92.5552C85.3974 92.294 85.4349 92.0098 85.4004 91.7299C85.2656 91.0242 84.3769 90.5113 83.4597 90.2119C81.817 89.6781 79.9566 89.6104 78.1481 89.5505C76.1064 89.4828 74.0569 89.4151 72.0152 89.5245" fill="#606161"/>
<path d="M72.9272 89.475C71.5773 89.5687 70.3051 90.1233 69.5874 90.9357C69.2434 91.2956 69.0215 91.7557 68.9535 92.2501C68.8856 92.7444 68.975 93.2477 69.2091 93.6879C69.7092 94.6044 70.8233 95.323 72.1188 95.724C73.4577 96.1158 74.85 96.2915 76.2437 96.2447C78.6596 96.2113 81.0516 95.7594 83.3146 94.909C83.597 94.8144 83.8648 94.6803 84.1101 94.5106C84.2767 94.3745 84.421 94.2128 84.5376 94.0316C84.8566 93.5774 85.1104 93.0804 85.2916 92.5552C85.3974 92.294 85.4349 92.0098 85.4004 91.7299C85.2656 91.0242 84.3769 90.5113 83.4597 90.2119C81.817 89.6781 79.9566 89.6104 78.1481 89.5505C76.1064 89.4828 74.0569 89.4151 72.0152 89.5245" fill="url(#paint4_linear)"/>
<path d="M80.3764 106.256C80.2056 106.426 80.0761 106.632 79.9981 106.86C79.9489 107.091 79.9489 107.33 79.9981 107.561C80.3686 110.052 82.1953 112.065 84.1437 113.648C84.4754 113.909 84.8744 114.192 85.2864 114.101C85.8564 113.971 86.0637 113.255 86.0637 112.669C86.0974 111.451 85.8512 110.245 85.6051 109.053C85.377 107.954 85.346 105.204 84.1308 104.681C82.9156 104.158 81.1148 105.431 80.3764 106.256Z" fill="#68E1FD"/>
<path d="M95.7152 114.546C95.7318 114.627 95.7747 114.699 95.837 114.752C95.9331 114.806 96.0436 114.829 96.1531 114.817C98.8452 114.817 101.659 114.804 104.038 113.731C104.234 113.643 104.452 113.51 104.447 113.323C104.442 113.135 104.245 113.021 104.069 112.927C102.068 111.885 99.9463 110.844 97.6041 110.521C96.4096 110.352 95.8266 110.242 95.5779 111.349C95.3379 112.408 95.3853 113.512 95.7152 114.546Z" fill="#68E1FD"/>
<path d="M80.3764 106.256C80.2056 106.426 80.0761 106.632 79.9981 106.86C79.9489 107.091 79.9489 107.33 79.9981 107.561C80.3686 110.052 82.1953 112.065 84.1437 113.648C84.4754 113.909 84.8744 114.192 85.2864 114.101C85.8564 113.971 86.0637 113.255 86.0637 112.669C86.0974 111.451 85.8512 110.245 85.6051 109.053C85.377 107.954 85.346 105.204 84.1308 104.681C82.9156 104.158 81.1148 105.431 80.3764 106.256Z" fill="url(#paint5_linear)"/>
<path d="M95.7152 114.546C95.7318 114.627 95.7747 114.699 95.837 114.752C95.9331 114.806 96.0436 114.829 96.1531 114.817C98.8452 114.817 101.659 114.804 104.038 113.731C104.234 113.643 104.452 113.51 104.447 113.323C104.442 113.135 104.245 113.021 104.069 112.927C102.068 111.885 99.9463 110.844 97.6041 110.521C96.4096 110.352 95.8266 110.242 95.5779 111.349C95.3379 112.408 95.3853 113.512 95.7152 114.546Z" fill="url(#paint6_linear)"/>
<path d="M98.1922 108.594C98.1922 109.342 98.1922 110.138 97.7984 110.766C97.4045 111.393 96.4303 111.708 95.8966 111.19C95.6753 110.933 95.5252 110.621 95.4613 110.287C94.6249 107.34 93.6029 104.449 92.4013 101.632C91.6603 99.8874 90.8467 98.1299 90.686 96.2422C90.5254 94.3545 91.2042 92.2584 92.8495 91.3133C94.145 90.5712 96.7179 90.3837 97.858 91.5554C98.7233 92.4459 98.13 93.8025 98.0367 94.883C97.6481 99.3693 98.1248 104.09 98.1922 108.594Z" fill="#606161"/>
<path d="M98.1922 108.594C98.1922 109.342 98.1922 110.138 97.7984 110.766C97.4045 111.393 96.4303 111.708 95.8966 111.19C95.6753 110.933 95.5252 110.621 95.4613 110.287C94.6249 107.34 93.6029 104.449 92.4013 101.632C91.6603 99.8874 90.8467 98.1299 90.686 96.2422C90.5254 94.3545 91.2042 92.2584 92.8495 91.3133C94.145 90.5712 96.7179 90.3837 97.858 91.5554C98.7233 92.4459 98.13 93.8025 98.0367 94.883C97.6481 99.3693 98.1248 104.09 98.1922 108.594Z" fill="url(#paint7_linear)"/>
<path d="M78.0497 13.2036H55.1788V47.1876H78.0497V13.2036Z" fill="#68E1FD"/>
<path d="M78.0497 13.2036H55.1788V47.1876H78.0497V13.2036Z" fill="#F8A763"/>
<path d="M83.3483 51.4968C83.1954 52.33 83.0529 53.1762 82.9026 54.0094C82.8904 54.2141 82.808 54.4082 82.6694 54.5588C82.5768 54.6396 82.4578 54.6832 82.3352 54.6812C82.1585 54.6726 81.984 54.6384 81.817 54.5796C80.48 54.1422 79.1146 53.6944 77.9486 52.9002C77.8203 52.8354 77.7081 52.7422 77.6207 52.6277C77.5332 52.5131 77.4726 52.3802 77.4434 52.2389C77.4515 52.0543 77.5068 51.875 77.604 51.7181C78.1015 50.7912 79.4773 47.4115 80.6433 47.1277C81.1615 46.9949 81.5838 47.5964 81.9699 48.3489C82.4052 49.2446 82.7809 50.3642 83.1358 50.7495C83.2375 50.8543 83.3161 50.9794 83.3664 51.1167C83.3837 51.2434 83.3775 51.3723 83.3483 51.4968Z" fill="url(#paint8_linear)"/>
<path d="M83.3482 51.4968C83.1954 52.33 83.0529 53.1762 82.9026 54.0094C82.8903 54.2141 82.8079 54.4082 82.6694 54.5588C82.5768 54.6396 82.4578 54.6832 82.3351 54.6812C81.8829 54.5249 81.5105 54.1955 81.2987 53.7647C81.078 53.2897 80.9379 52.7811 80.8842 52.2597C80.7209 51.0984 80.6095 49.846 80.9127 48.7082C81.0552 48.1666 81.4801 48.1666 81.9491 48.3411C82.3844 49.2368 82.7601 50.3564 83.115 50.7417C83.2167 50.8465 83.2953 50.9715 83.3456 51.1088C83.3707 51.2369 83.3716 51.3685 83.3482 51.4968Z" fill="url(#paint9_linear)"/>
<path d="M76.2411 52.4602C75.9635 52.4756 75.6951 52.5655 75.4638 52.7206C75.0881 53.0278 75.0518 53.5798 75.0104 54.0641C74.6113 58.7977 70.9995 62.7814 70.5383 67.5098C70.388 69.0382 70.5797 70.5744 70.7041 72.1054C70.9477 75.1029 70.9399 78.1156 70.6808 81.1118C70.5046 83.1193 70.2299 85.2179 70.9684 87.1004C71.2586 87.8373 71.8545 88.5976 72.6396 88.5507C72.9742 88.5046 73.2946 88.3846 73.5775 88.1992L84.0375 82.3538C84.4494 82.1246 84.8873 81.8643 85.0739 81.4268C85.3952 80.6457 84.7241 79.8412 84.1955 79.1798C82.8045 77.4301 82.1167 75.2199 82.2678 72.9855C82.4518 71.5092 82.7575 69.5382 83.5037 69.1085C84.2499 68.6789 85.0791 69.5876 85.2863 68.7518C85.8641 66.4085 85.9704 66.9787 85.8797 64.3411C85.8082 62.2867 85.4925 60.2482 84.9391 58.2692C84.7467 57.4336 84.4147 56.6368 83.9571 55.9128C82.2238 53.4835 79.1664 52.067 76.2411 52.4602Z" fill="#68E1FD"/>
<path d="M76.2411 52.4602C75.9635 52.4756 75.6951 52.5655 75.4638 52.7206C75.0881 53.0278 75.0518 53.5798 75.0104 54.0641C74.6113 58.7977 70.9995 62.7814 70.5383 67.5098C70.388 69.0382 70.5797 70.5744 70.7041 72.1054C70.9477 75.1029 70.9399 78.1156 70.6808 81.1118C70.5046 83.1193 70.2299 85.2179 70.9684 87.1004C71.2586 87.8373 71.8545 88.5976 72.6396 88.5507C72.9742 88.5046 73.2946 88.3846 73.5775 88.1992L84.0375 82.3538C84.4494 82.1246 84.8873 81.8643 85.0739 81.4268C85.3952 80.6457 84.7241 79.8412 84.1955 79.1798C82.8045 77.4301 82.1167 75.2199 82.2678 72.9855C82.8611 68.2493 86.0429 68.0514 85.96 66.2809C85.8253 63.4532 85.6335 60.5995 84.8277 57.8864C84.6459 57.1855 84.3518 56.5189 83.9571 55.9128C82.2238 53.4835 79.1664 52.067 76.2411 52.4602Z" fill="url(#paint10_linear)"/>
<path d="M95.8499 59.7507C95.8509 59.5645 95.8744 59.3792 95.9199 59.1987C96.0133 58.9529 96.1593 58.7307 96.3474 58.5478C97.3203 57.5048 98.5851 56.783 99.9749 56.4778C100.037 56.5105 100.091 56.5559 100.134 56.6109C100.177 56.666 100.209 56.7295 100.226 56.7974C100.243 56.8654 100.246 56.9362 100.235 57.0054C100.223 57.0745 100.197 57.1405 100.159 57.199C100.068 57.2974 99.9703 57.3887 99.866 57.4724C99.4489 57.8994 99.6795 58.605 99.6562 59.2039C99.6095 60.3548 98.5757 61.1671 97.8709 62.068C96.8138 63.435 96.42 65.2524 95.2799 66.5465C94.8213 67.0672 93.7253 67.7858 93.1138 67.0412C92.663 66.4892 93.3418 65.6534 93.6554 65.2185C94.8265 63.5339 95.7308 61.8571 95.8499 59.7507Z" fill="url(#paint11_linear)"/>
<path d="M99.7235 88.5168C100.097 88.7772 100.501 89.0662 100.602 89.5036C100.657 89.8169 100.618 90.1395 100.49 90.4306C100.071 91.5997 99.2416 92.5631 98.4176 93.4822C94.3055 98.0224 89.7375 102.123 84.7863 105.72C84.5272 105.915 84.2007 106.121 83.8742 106.05C83.6954 105.99 83.5423 105.87 83.4401 105.711C83.3379 105.551 83.2928 105.362 83.312 105.173C83.3625 104.8 83.4982 104.443 83.7084 104.131C85.3511 101.207 86.8738 98.2201 88.2764 95.172C88.7609 94.1305 89.2377 93.0265 89.2713 91.8679C85.2535 91.6839 81.2401 91.4235 77.2309 91.0867C75.811 90.9696 74.246 90.7717 73.3003 89.6989C73.1016 89.4909 72.9628 89.2327 72.8987 88.9517C72.8644 88.5503 72.9549 88.1482 73.1578 87.8008C73.7081 86.6595 74.5026 85.6546 75.4844 84.8579C76.4662 84.0611 77.6112 83.4923 78.8373 83.1922C79.783 82.9683 80.7728 82.911 81.6874 82.5803C82.4414 82.3069 83.1255 81.7731 83.952 81.7315C85.4289 81.6586 87.3203 82.6167 88.7065 83.075C92.6108 84.3702 96.3182 86.2014 99.7235 88.5168Z" fill="#606161"/>
<path d="M99.7235 88.5168C100.097 88.7772 100.501 89.0662 100.602 89.5036C100.657 89.8169 100.618 90.1395 100.49 90.4306C100.071 91.5997 99.2416 92.5631 98.4176 93.4822C94.3055 98.0224 89.7375 102.123 84.7863 105.72C84.5272 105.915 84.2007 106.121 83.8742 106.05C83.6954 105.99 83.5423 105.87 83.4401 105.711C83.3379 105.551 83.2928 105.362 83.312 105.173C83.3625 104.8 83.4982 104.443 83.7084 104.131C85.3511 101.207 86.8738 98.2201 88.2764 95.172C88.7609 94.1305 89.2377 93.0265 89.2713 91.8679C85.2535 91.6839 81.2401 91.4235 77.2309 91.0867C75.811 90.9696 74.246 90.7717 73.3003 89.6989C73.1016 89.4909 72.9628 89.2327 72.8987 88.9517C72.8644 88.5503 72.9549 88.1482 73.1578 87.8008C73.7081 86.6595 74.5026 85.6546 75.4844 84.8579C76.4662 84.0611 77.6112 83.4923 78.8373 83.1922C79.783 82.9683 80.7728 82.911 81.6874 82.5803C82.4414 82.3069 83.1255 81.7731 83.952 81.7315C85.4289 81.6586 87.3203 82.6167 88.7065 83.075C92.6108 84.3702 96.3182 86.2014 99.7235 88.5168Z" fill="url(#paint12_linear)"/>
<path d="M66.6906 69.9131C65.6827 70.0121 64.807 70.6942 64.2551 71.5535C63.7032 72.4127 63.4337 73.4099 63.2187 74.402C62.4543 78.0134 62.3921 81.9216 63.9804 85.2492C64.3717 86.0693 64.9443 86.9078 65.8226 87.1239C66.9549 87.3999 68.0587 86.5042 68.6572 85.4965C69.8128 83.5489 69.8413 81.1535 69.8361 78.8856V74.3707C69.8283 72.4387 69.191 69.6684 66.6906 69.9131Z" fill="#606161"/>
<path d="M65.5014 74.5478C64.7396 77.9899 65.0712 81.7315 66.7554 84.8248C67.0922 85.4444 67.6571 86.1266 68.3463 85.9756C68.7275 85.8565 69.0485 85.5945 69.2428 85.244C69.6273 84.6717 69.8999 84.031 70.046 83.3562C70.1638 82.7208 70.2237 82.0759 70.2248 81.4295C70.3206 78.5654 70.4165 75.6804 70.1522 72.8215C70.139 72.2365 69.9909 71.6625 69.7195 71.1447C68.9267 69.8428 67.7348 70.3115 66.9523 71.2618C66.1698 72.2122 65.7605 73.3813 65.5014 74.5478Z" fill="#606161"/>
<path d="M65.5014 74.5478C64.7396 77.9899 65.0712 81.7315 66.7554 84.8248C67.0922 85.4444 67.6571 86.1266 68.3463 85.9756C68.7275 85.8565 69.0485 85.5945 69.2428 85.244C69.6273 84.6717 69.8999 84.031 70.046 83.3562C70.1638 82.7208 70.2237 82.0759 70.2248 81.4295C70.3206 78.5654 70.4165 75.6804 70.1522 72.8215C70.139 72.2365 69.9909 71.6625 69.7195 71.1447C68.9267 69.8428 67.7348 70.3115 66.9523 71.2618C66.1698 72.2122 65.7605 73.3813 65.5014 74.5478Z" fill="url(#paint13_linear)"/>
<path d="M87.3851 62.5575C88.2246 63.2345 89.2843 63.7501 90.3518 63.599C91.4608 63.4428 92.4246 62.594 93.5413 62.6096C93.4908 63.5257 93.211 64.4141 92.7278 65.1925C92.1396 66.1377 91.2794 66.8772 90.4321 67.601L88.4992 69.2492C88.2246 69.4835 87.8981 69.7335 87.5431 69.6762C87.3628 69.6346 87.1971 69.5446 87.0638 69.4158C86.3046 68.7701 85.9833 67.7546 85.7087 66.7938C85.4755 65.9711 85.2501 65.1483 85.0247 64.3229C84.8926 63.9131 84.8151 63.4876 84.7941 63.0575C84.7941 62.4169 84.9599 61.0968 85.2838 60.6204C86.0611 61.1515 86.6492 61.9691 87.3851 62.5575Z" fill="#68E1FD"/>
<path d="M87.3851 62.5575C88.2246 63.2345 89.2843 63.7501 90.3518 63.599C91.4608 63.4428 92.4246 62.594 93.5413 62.6096C93.4908 63.5257 93.211 64.4141 92.7278 65.1925C92.1396 66.1377 91.2794 66.8772 90.4321 67.601L88.4992 69.2492C88.2246 69.4835 87.8981 69.7335 87.5431 69.6762C87.3628 69.6346 87.1971 69.5446 87.0638 69.4158C86.3046 68.7701 85.9833 67.7546 85.7087 66.7938C85.4755 65.9711 85.2501 65.1483 85.0247 64.3229C84.8926 63.9131 84.8151 63.4876 84.7941 63.0575C84.7941 62.4169 84.9599 61.0968 85.2838 60.6204C86.0611 61.1515 86.6492 61.9691 87.3851 62.5575Z" fill="url(#paint14_linear)"/>
<path d="M112.409 43.6517L114.311 46.0394L96.6299 83.39L93.873 82.4345L112.409 43.6517Z" fill="#68E1FD"/>
<path d="M112.409 43.6517L114.311 46.0394L96.6299 83.39L93.873 82.4345L112.409 43.6517Z" fill="url(#paint15_linear)"/>
<path d="M150.147 14.0394H114.404V67.1505H150.147V14.0394Z" fill="url(#paint16_linear)"/>
<path d="M128.445 64.1562H107.465V95.3308H128.445V64.1562Z" fill="#68E1FD"/>
<path d="M128.445 64.1562H107.465V95.3308H128.445V64.1562Z" fill="url(#paint17_linear)"/>
<path d="M88.621 46.3154C88.4759 47.1304 87.8903 47.8776 88.0199 48.6952C88.095 49.1587 88.3774 49.7029 88.0536 50.0413C87.9358 50.1411 87.804 50.2227 87.6623 50.2835C87.1053 50.5959 86.841 51.2443 86.5871 51.8457C86.3331 52.4472 85.9782 53.0669 85.3641 53.2492C84.8718 53.395 84.3432 53.2049 83.895 52.9575C82.8251 52.3405 81.9721 51.405 81.4537 50.2801C80.9353 49.1552 80.7771 47.8964 81.0008 46.6773C81.2599 45.477 81.931 44.3131 83.014 43.7507C84.8329 42.7977 89.1237 43.506 88.621 46.3154Z" fill="url(#paint18_linear)"/>
<path d="M89.274 45.93C89.0149 46.3049 88.5563 46.6538 88.1339 46.482C87.7116 46.3101 87.5872 45.805 87.1856 45.7009C86.7348 45.5889 86.3435 46.0784 85.8901 46.1018C85.6475 46.0807 85.4088 46.0273 85.1802 45.943C84.8658 45.8946 84.5443 45.9271 84.2457 46.0372C83.9472 46.1474 83.6812 46.3318 83.4727 46.5731C83.0619 47.0611 82.7384 47.617 82.5166 48.2161C82.3183 48.0449 82.1666 47.8257 82.0759 47.5792C81.9853 47.3328 81.9586 47.0672 81.9984 46.8075C81.6358 46.923 81.3127 47.1385 81.0658 47.4294C80.8189 47.7203 80.6582 48.0749 80.6018 48.453C80.5345 48.9555 80.6018 49.5961 80.151 49.833C79.9829 49.9056 79.7997 49.936 79.6172 49.9215H77.7647C77.0988 49.9215 76.2904 49.8408 76.0106 49.2341C75.8033 48.7811 76.0105 48.2551 76.2126 47.8047C77.1195 45.8519 78.2103 43.9485 79.7468 42.4436C81.2833 40.9386 83.3172 39.8633 85.4626 39.819C88.1287 39.7774 91.0125 43.4669 89.274 45.93Z" fill="#606161"/>
<path d="M89.274 45.93C89.0149 46.3049 88.5563 46.6538 88.1339 46.482C87.7116 46.3101 87.5872 45.805 87.1856 45.7009C86.7348 45.5889 86.3435 46.0784 85.8901 46.1018C85.6475 46.0807 85.4088 46.0273 85.1802 45.943C84.8658 45.8946 84.5443 45.9271 84.2457 46.0372C83.9472 46.1474 83.6812 46.3318 83.4727 46.5731C83.0619 47.0611 82.7384 47.617 82.5166 48.2161C82.3183 48.0449 82.1666 47.8257 82.0759 47.5792C81.9853 47.3328 81.9586 47.0672 81.9984 46.8075C81.6358 46.923 81.3127 47.1385 81.0658 47.4294C80.8189 47.7203 80.6582 48.0749 80.6018 48.453C80.5345 48.9555 80.6018 49.5961 80.151 49.833C79.9829 49.9056 79.7997 49.936 79.6172 49.9215H77.7647C77.0988 49.9215 76.2904 49.8408 76.0106 49.2341C75.8033 48.7811 76.0105 48.2551 76.2126 47.8047C77.1195 45.8519 78.2103 43.9485 79.7468 42.4436C81.2833 40.9386 83.3172 39.8633 85.4626 39.819C88.1287 39.7774 91.0125 43.4669 89.274 45.93Z" fill="url(#paint19_linear)"/>
<path d="M77.376 39.6238C76.7412 39.8633 76.0805 40.1445 75.6737 40.6887C75.3994 41.1057 75.215 41.5758 75.1322 42.0687C74.9093 43.0451 74.7876 44.2038 75.4794 44.9328C76.223 45.7139 77.5988 45.6228 78.2569 46.4716C78.3352 46.6025 78.4403 46.7153 78.5653 46.8023C78.6742 46.8474 78.7927 46.8644 78.9099 46.8518C80.8972 46.7606 82.2471 44.8677 83.9313 43.8054C84.9577 43.1593 86.1428 42.8131 87.354 42.8055C87.9862 42.8055 88.6495 42.8915 89.2403 42.6936C89.831 42.4957 90.3777 41.8786 90.2093 41.2667C90.0694 40.746 89.59 40.582 89.248 40.2409C88.906 39.8998 88.8257 39.491 88.5199 39.1994C87.7737 38.4625 86.0119 38.3349 85.0273 38.2594C82.4181 38.0485 79.7986 38.702 77.376 39.6238Z" fill="#68E1FD"/>
<path d="M90.2248 41.5662C90.1846 41.8287 90.0709 42.0743 89.897 42.2744C89.7232 42.4745 89.4963 42.6208 89.2428 42.6962C88.6339 42.8915 87.9862 42.8081 87.3592 42.8081C86.147 42.8119 84.9603 43.1574 83.9338 43.8054C82.2419 44.8651 80.8972 46.758 78.9098 46.8491C78.7926 46.8688 78.6723 46.8515 78.5652 46.7997C78.4426 46.7104 78.3365 46.6003 78.2517 46.4742C77.5936 45.6176 76.2256 45.7087 75.4767 44.9354C74.7875 44.2142 74.9093 43.0529 75.1321 42.0713C75.1926 41.7725 75.2793 41.4798 75.3912 41.1964C75.4575 41.009 75.5528 40.8332 75.6737 40.6757C76.0805 40.1367 76.7386 39.8529 77.3656 39.6186C79.796 38.6916 82.4103 38.0407 85.022 38.2334C86.0066 38.3037 87.7685 38.4365 88.5173 39.1707C88.8205 39.4754 88.9215 39.9024 89.2454 40.2278C89.5693 40.5533 90.0668 40.7486 90.1989 41.2459C90.236 41.3484 90.245 41.459 90.2248 41.5662Z" fill="url(#paint20_linear)"/>
<path d="M79.1327 56.0638C79.7442 55.543 80.6562 56.0638 81.2599 56.5845C81.9711 57.1798 82.6236 57.8425 83.2084 58.5634C85.4652 61.4275 85.9549 65.4112 88.2091 68.2884C89.1807 68.028 89.7818 67.0958 90.3622 66.2757C90.9426 65.4555 91.7613 64.6093 92.7615 64.6978C93.9249 64.7993 94.5752 66.0726 94.9664 67.1792C95.0896 67.4457 95.1336 67.7422 95.0934 68.0332C95.0047 68.2974 94.8472 68.533 94.6374 68.7154L90.9737 72.4908C90.2326 73.2563 89.4191 74.053 88.3568 74.2067C87.515 74.2783 86.6786 74.0178 86.0248 73.4802C85.3783 72.942 84.8043 72.3214 84.3173 71.6342L80.5785 66.8225C79.4851 65.4086 78.3684 63.9583 77.8217 62.2529C77.275 60.5474 77.4045 58.5113 78.599 57.186" fill="#F07E24"/>
<path d="M90.2248 41.5661C90.1846 41.8287 90.0709 42.0743 89.8971 42.2744C89.7232 42.4745 89.4963 42.6208 89.2428 42.6962C88.6339 42.8914 87.9862 42.8081 87.3592 42.8081C86.147 42.8119 84.9603 43.1574 83.9338 43.8054C82.2419 44.8651 80.8972 46.758 78.9098 46.8491C78.7926 46.8688 78.6723 46.8515 78.5652 46.7997C78.4426 46.7104 78.3365 46.6003 78.2517 46.4742C77.5936 45.6176 76.2256 45.7087 75.4767 44.9354C74.7875 44.2141 74.9093 43.0529 75.1321 42.0713C75.1926 41.7725 75.2793 41.4798 75.3912 41.1964C75.5959 41.367 75.7764 41.565 75.9276 41.7849C76.4368 42.3381 77.1424 42.6674 77.8916 42.7014C78.6365 42.7379 79.3829 42.6766 80.1121 42.5191C80.0237 42.681 79.9706 42.8599 79.9563 43.0439C79.9421 43.228 79.9669 43.413 80.0292 43.5866C81.4695 42.5641 83.1886 42.0131 84.9521 42.0088C85.8434 42.0088 86.7244 42.1416 87.6053 42.1312C88.1169 42.1292 88.6255 42.0538 89.1159 41.9072C89.3879 41.8161 89.8932 41.4594 90.1885 41.5505C90.2041 41.5505 90.2145 41.5661 90.2248 41.5661Z" fill="url(#paint21_linear)"/>
<path d="M146.556 24.6887H116.925V29.5942H146.556V24.6887Z" fill="#FEA762"/>
<path d="M60.6977 25.7875H24.9546V78.8986H60.6977V25.7875Z" fill="#68E1FD"/>
<path d="M60.6977 25.7745H25.0919V79.4741H60.6977V25.7745Z" fill="url(#paint22_linear)"/>
<path opacity="0.45" d="M33.0152 43.1779C32.6395 44.0866 32.8209 45.3103 33.6733 45.7946C34.7305 46.3961 36.0312 45.5707 36.8422 44.662C35.202 49.5623 35.728 55.2358 32.9038 59.5606C32.199 60.6412 31.2792 61.6592 31.0901 62.9455C30.9009 64.2317 31.9892 65.7653 33.2199 65.3904C33.5956 65.2758 33.9221 64.9998 34.3133 64.9608C35.1243 64.8775 35.7487 65.8174 36.5623 65.8122C36.9354 65.8122 37.2749 65.6039 37.6324 65.4972C38.6377 65.1977 39.6871 65.6716 40.7054 65.919C41.7236 66.1663 43.0528 66.0283 43.4596 65.0597C43.7368 65.8409 44.7551 65.9867 45.5791 66.0049L48.0716 66.0596C48.6106 66.0596 49.1987 66.0596 49.6262 65.7341C50.1289 65.3357 50.2273 64.5885 50.0719 63.9636C49.9164 63.3387 49.5537 62.7919 49.2946 62.2086C48.2789 60.0658 48.4318 57.5766 48.1001 55.2254C47.6104 51.7312 46.0273 48.1667 47.1129 44.8104L48.9837 47.0835C49.1032 47.2484 49.2537 47.3881 49.4267 47.4949C49.5742 47.5578 49.733 47.5891 49.8932 47.5868C50.0533 47.5846 50.2113 47.5488 50.3569 47.4819C51.598 47.0028 52.1706 45.4874 52.0203 44.1621C51.8701 42.8368 51.1368 41.6573 50.4294 40.5169L48.7738 37.8949C48.6565 37.6755 48.495 37.483 48.2996 37.3299C48.0002 37.1627 47.6597 37.0841 47.3176 37.1033L41.6433 36.9003C39.358 36.8169 38.2309 37.1841 36.9484 38.9286C35.8446 40.4413 33.7563 41.3891 33.0152 43.1779Z" fill="#F39B4F"/>
</g>
<defs>
<linearGradient id="paint0_linear" x1="92.676" y1="58.5269" x2="135.9" y2="77.0005" gradientUnits="userSpaceOnUse">
<stop stop-color="#F07E24"/>
<stop offset="0.95" stop-color="#010101"/>
</linearGradient>
<linearGradient id="paint1_linear" x1="3265.45" y1="6853.09" x2="9270.77" y2="4612.77" gradientUnits="userSpaceOnUse">
<stop stop-color="#010101" stop-opacity="0"/>
<stop offset="0.95" stop-color="#010101"/>
</linearGradient>
<linearGradient id="paint2_linear" x1="3440.7" y1="465.664" x2="3441.07" y2="474.014" gradientUnits="userSpaceOnUse">
<stop stop-color="#F07E24"/>
<stop offset="0.95" stop-color="#010101"/>
</linearGradient>
<linearGradient id="paint3_linear" x1="2108.08" y1="3906.31" x2="1669.83" y2="4092.91" gradientUnits="userSpaceOnUse">
<stop stop-color="#010101" stop-opacity="0"/>
<stop offset="0.95" stop-color="#010101"/>
</linearGradient>
<linearGradient id="paint4_linear" x1="4303.84" y1="2555.39" x2="4306.16" y2="2474.79" gradientUnits="userSpaceOnUse">
<stop stop-color="#010101" stop-opacity="0"/>
<stop offset="0.95" stop-color="#010101"/>
</linearGradient>
<linearGradient id="paint5_linear" x1="1855.83" y1="4113.62" x2="1650.26" y2="4154.34" gradientUnits="userSpaceOnUse">
<stop stop-color="#010101" stop-opacity="0"/>
<stop offset="0.95" stop-color="#010101"/>
</linearGradient>
<linearGradient id="paint6_linear" x1="3192.01" y1="1981.6" x2="3208.97" y2="2178.47" gradientUnits="userSpaceOnUse">
<stop stop-color="#F07E24"/>
<stop offset="0.95" stop-color="#F07E24"/>
</linearGradient>
<linearGradient id="paint7_linear" x1="2786.44" y1="8582.69" x2="2152" y2="8342.77" gradientUnits="userSpaceOnUse">
<stop stop-color="#010101" stop-opacity="0"/>
<stop offset="0.95" stop-color="#010101"/>
</linearGradient>
<linearGradient id="paint8_linear" x1="77.4304" y1="50.8901" x2="83.3716" y2="50.8901" gradientUnits="userSpaceOnUse">
<stop stop-color="#E4C5D5"/>
<stop offset="0.42" stop-color="#E9D3CF"/>
<stop offset="1" stop-color="#EFE8CA"/>
</linearGradient>
<linearGradient id="paint9_linear" x1="796.293" y1="1359" x2="925.348" y2="1311.75" gradientUnits="userSpaceOnUse">
<stop stop-color="#010101" stop-opacity="0"/>
<stop offset="0.95" stop-color="#010101"/>
</linearGradient>
<linearGradient id="paint10_linear" x1="3890.02" y1="9831.96" x2="6296.79" y2="10208.6" gradientUnits="userSpaceOnUse">
<stop stop-color="#F07E24"/>
<stop offset="0.95" stop-color="#F07E24"/>
</linearGradient>
<linearGradient id="paint11_linear" x1="2410.21" y1="2659.61" x2="2614.78" y2="2659.61" gradientUnits="userSpaceOnUse">
<stop stop-color="#E4C5D5"/>
<stop offset="0.42" stop-color="#E9D3CF"/>
<stop offset="1" stop-color="#EFE8CA"/>
</linearGradient>
<linearGradient id="paint12_linear" x1="9119.35" y1="8890.5" x2="5562.95" y2="8890.5" gradientUnits="userSpaceOnUse">
<stop stop-color="#010101" stop-opacity="0"/>
<stop offset="0.95" stop-color="#010101"/>
</linearGradient>
<linearGradient id="paint13_linear" x1="1264.26" y1="3693.81" x2="525.552" y2="5681.45" gradientUnits="userSpaceOnUse">
<stop stop-color="#010101" stop-opacity="0"/>
<stop offset="0.95" stop-color="#010101"/>
</linearGradient>
<linearGradient id="paint14_linear" x1="2761.02" y1="2241.54" x2="2377.13" y2="2614.46" gradientUnits="userSpaceOnUse">
<stop stop-color="#010101" stop-opacity="0"/>
<stop offset="0.95" stop-color="#010101"/>
</linearGradient>
<linearGradient id="paint15_linear" x1="6952.03" y1="9663.9" x2="7931.08" y2="9763.01" gradientUnits="userSpaceOnUse">
<stop stop-color="#F07E24"/>
<stop offset="0.95" stop-color="#F07E24"/>
</linearGradient>
<linearGradient id="paint16_linear" x1="16372.5" y1="16312.8" x2="15851.8" y2="-3496.56" gradientUnits="userSpaceOnUse">
<stop stop-color="white" stop-opacity="0"/>
<stop offset="0.07" stop-color="white" stop-opacity="0.22"/>
<stop offset="0.16" stop-color="white" stop-opacity="0.45"/>
<stop offset="0.25" stop-color="white" stop-opacity="0.65"/>
<stop offset="0.33" stop-color="white" stop-opacity="0.8"/>
<stop offset="0.4" stop-color="white" stop-opacity="0.91"/>
<stop offset="0.46" stop-color="white" stop-opacity="0.98"/>
<stop offset="0.51" stop-color="white"/>
</linearGradient>
<linearGradient id="paint17_linear" x1="7993.86" y1="12864.1" x2="10817.8" y2="3426.7" gradientUnits="userSpaceOnUse">
<stop stop-color="white" stop-opacity="0"/>
<stop offset="0.07" stop-color="white" stop-opacity="0.22"/>
<stop offset="0.16" stop-color="white" stop-opacity="0.45"/>
<stop offset="0.25" stop-color="white" stop-opacity="0.65"/>
<stop offset="0.33" stop-color="white" stop-opacity="0.8"/>
<stop offset="0.4" stop-color="white" stop-opacity="0.91"/>
<stop offset="0.46" stop-color="white" stop-opacity="0.98"/>
<stop offset="0.51" stop-color="white"/>
</linearGradient>
<linearGradient id="paint18_linear" x1="2190.52" y1="1903.1" x2="2423.16" y2="1903.1" gradientUnits="userSpaceOnUse">
<stop stop-color="#E4C5D5"/>
<stop offset="0.42" stop-color="#E9D3CF"/>
<stop offset="1" stop-color="#EFE8CA"/>
</linearGradient>
<linearGradient id="paint19_linear" x1="4021.58" y1="1936.69" x2="3942.12" y2="1737.14" gradientUnits="userSpaceOnUse">
<stop stop-color="#010101" stop-opacity="0"/>
<stop offset="0.95" stop-color="#010101"/>
</linearGradient>
<linearGradient id="paint20_linear" x1="4372.1" y1="1342.64" x2="4291.22" y2="1992.1" gradientUnits="userSpaceOnUse">
<stop stop-color="#F8B119"/>
<stop offset="0.95" stop-color="#F8B119"/>
</linearGradient>
<linearGradient id="paint21_linear" x1="4353.42" y1="886.836" x2="4334.11" y2="1308.19" gradientUnits="userSpaceOnUse">
<stop stop-color="#010101" stop-opacity="0"/>
<stop offset="0.95" stop-color="#010101"/>
</linearGradient>
<linearGradient id="paint22_linear" x1="1651.56" y1="18004.9" x2="14893.6" y2="-929.129" gradientUnits="userSpaceOnUse">
<stop stop-color="white" stop-opacity="0"/>
<stop offset="0.07" stop-color="white" stop-opacity="0.22"/>
<stop offset="0.16" stop-color="white" stop-opacity="0.45"/>
<stop offset="0.25" stop-color="white" stop-opacity="0.65"/>
<stop offset="0.33" stop-color="white" stop-opacity="0.8"/>
<stop offset="0.4" stop-color="white" stop-opacity="0.91"/>
<stop offset="0.46" stop-color="white" stop-opacity="0.98"/>
<stop offset="0.51" stop-color="white"/>
</linearGradient>
<clipPath id="clip0">
<rect width="169" height="128" fill="white"/>
</clipPath>
</defs>
</svg>
