<svg width="166" height="153" viewBox="0 0 166 153" fill="none" xmlns="http://www.w3.org/2000/svg">
<path d="M138.681 111.471C138.681 111.471 158.522 55.91 148.243 47.4367C137.964 38.9635 94.8555 42.3851 92.4937 45.4122C90.1319 48.4393 76.2262 115.32 76.2262 115.32L138.681 111.471Z" fill="#393939"/>
<path d="M76.1961 115.656C76.1529 115.656 76.1103 115.646 76.0709 115.627C76.0315 115.608 75.9962 115.58 75.9671 115.546C75.9371 115.508 75.916 115.463 75.9055 115.415C75.895 115.367 75.8955 115.316 75.9069 115.268C76.4732 112.532 89.8789 48.2711 92.2648 45.2181C93.5722 43.5429 105.08 41.9841 117.395 41.8094C124.625 41.7059 142.152 42.0229 148.43 47.1909C152.798 50.7872 152.521 62.7144 147.61 82.7139C143.995 97.5066 139.013 111.445 138.965 111.581C138.944 111.64 138.908 111.691 138.861 111.728C138.814 111.765 138.758 111.786 138.699 111.788L76.2142 115.669L76.1961 115.656ZM119.673 42.4368H117.407C104.755 42.6179 93.759 44.2932 92.7046 45.6191C90.8971 47.9541 81.4017 91.7564 76.5576 114.977L138.452 111.148C139.724 107.532 157.732 55.6642 148.044 47.689C143.965 44.332 133.681 42.4368 119.673 42.4368Z" fill="#231F20"/>
<path d="M58.1211 63.4647L49.1801 95.6825C49.1801 95.6825 67.6226 98.2375 67.6226 97.5066C67.6226 96.7757 71.2376 62.0547 71.2376 62.0547L58.1211 63.4647Z" fill="#D4A397"/>
<path d="M66.6947 97.927C63.5798 97.927 54.7411 96.7757 49.1439 95.9866C49.1007 95.98 49.0593 95.9636 49.0225 95.9385C48.9856 95.9134 48.9542 95.8801 48.9303 95.841C48.9063 95.8018 48.8904 95.7576 48.8836 95.7114C48.8768 95.6651 48.8793 95.6178 48.8909 95.5726L57.832 63.3548C57.8485 63.2927 57.882 63.2372 57.9282 63.1957C57.9744 63.1542 58.0311 63.1285 58.091 63.122L71.2135 61.7119C71.2579 61.7075 71.3026 61.7139 71.3444 61.7308C71.3861 61.7476 71.4238 61.7743 71.4545 61.8089C71.4869 61.8416 71.5114 61.8822 71.5261 61.9273C71.5408 61.9723 71.5451 62.0204 71.5389 62.0677C70.2917 74.0337 67.9238 96.8339 67.9238 97.4872C67.9183 97.593 67.8752 97.6926 67.8033 97.7653C67.45 97.9089 67.0709 97.9642 66.6947 97.927ZM49.5476 95.4109C55.9582 96.2906 65.9115 97.5131 67.3093 97.2996C67.5382 94.5054 70.4724 66.3043 70.8761 62.4169L58.332 63.7688L49.5476 95.4109Z" fill="#231F20"/>
<path d="M41.1728 55.4637C41.2512 55.5542 44.4263 54.6422 46.0651 56.7573C47.7039 58.8724 45.5771 60.7611 40.4016 59.668C35.2262 58.5748 41.1728 55.4637 41.1728 55.4637Z" fill="white"/>
<path d="M43.1309 60.3083C42.1938 60.2983 41.2597 60.1921 40.3413 59.9914C38.8471 59.6745 38.0759 59.157 37.9856 58.4002C37.8108 56.9384 40.498 55.4572 41.0402 55.1662C41.1028 55.1435 41.1705 55.1435 41.233 55.1662H41.4319C42.2754 55.0562 44.842 54.7069 46.3001 56.5827C46.9508 57.4106 47.0893 58.2579 46.7037 58.9694C46.2037 59.8168 44.9083 60.3083 43.1309 60.3083ZM41.2391 55.7806C40.0642 56.4275 38.5158 57.5659 38.6001 58.2838C38.6001 58.5231 38.9134 58.9759 40.4618 59.3058C43.9624 60.0431 45.7217 59.3575 46.1675 58.549C46.274 58.2746 46.2981 57.9714 46.2366 57.6816C46.175 57.3917 46.0308 57.1297 45.8241 56.932C44.5829 55.3408 42.3477 55.6383 41.5102 55.7548C41.3957 55.7806 41.3114 55.7806 41.2391 55.7806Z" fill="#231F20"/>
<path d="M33.2137 48.7045C33.2137 48.7045 32.563 47.9024 32.9727 47.3397C33.0648 47.2255 33.1811 47.1364 33.3117 47.08C33.4423 47.0236 33.5835 47.0015 33.7237 47.0154C33.8639 47.0293 33.999 47.0789 34.1177 47.16C34.2365 47.2412 34.3355 47.3516 34.4066 47.482C34.4066 47.482 33.3824 47.8766 33.2137 48.7045Z" fill="white"/>
<path d="M33.2137 49.0343C33.1695 49.0348 33.1257 49.0253 33.0852 49.0063C33.0448 48.9874 33.0084 48.9595 32.9787 48.9244C32.6775 48.5492 32.2798 47.7472 32.7317 47.1392C32.8327 46.9966 32.963 46.881 33.1125 46.8014C33.2619 46.7217 33.4264 46.6802 33.5933 46.6799C33.7986 46.6837 34.0003 46.7388 34.1823 46.841C34.3643 46.9432 34.5216 47.0896 34.6416 47.2685C34.6746 47.3097 34.6975 47.3591 34.708 47.4123C34.7185 47.4654 34.7164 47.5205 34.7019 47.5725C34.6892 47.6242 34.665 47.6718 34.6315 47.7113C34.5979 47.7507 34.5559 47.7808 34.5091 47.7989C34.2681 47.8895 33.6234 48.2517 33.5149 48.7756C33.5033 48.8358 33.4763 48.8913 33.4369 48.9358C33.3976 48.9804 33.3474 49.0123 33.292 49.0279L33.2137 49.0343ZM33.6053 47.3462C33.5322 47.3473 33.4602 47.3659 33.3945 47.4006C33.3289 47.4353 33.2712 47.4852 33.2257 47.5467C33.1914 47.6176 33.1735 47.6964 33.1735 47.7763C33.1735 47.8562 33.1914 47.935 33.2257 48.0059C33.4072 47.7668 33.6277 47.5652 33.8764 47.4108C33.7932 47.3716 33.7013 47.3582 33.6113 47.372L33.6053 47.3462Z" fill="#231F20"/>
<path d="M34.6356 47.4496C34.2772 47.4809 33.9385 47.6388 33.6726 47.8986C33.4066 48.1584 33.2283 48.5054 33.1655 48.8856L46.0891 66.9381C46.1689 66.073 46.5169 65.2617 47.0773 64.6343C47.6377 64.0068 48.3782 63.5995 49.18 63.4777L34.6356 47.4496Z" fill="#BBBBBB"/>
<path d="M46.0831 67.268C46.0364 67.2675 45.9904 67.2556 45.9487 67.2332C45.9069 67.2108 45.8705 67.1784 45.8421 67.1386L32.9185 49.0861C32.8893 49.0452 32.8692 48.9978 32.8598 48.9473C32.8504 48.8968 32.852 48.8447 32.8643 48.795C32.9493 48.3462 33.1682 47.9393 33.4878 47.6359C33.8074 47.3325 34.2103 47.149 34.6356 47.1133C34.6773 47.1137 34.7185 47.1231 34.7568 47.1409C34.7951 47.1587 34.8297 47.1845 34.8585 47.2168L49.4029 63.2448C49.4433 63.2878 49.4715 63.3422 49.4843 63.4018C49.4971 63.4613 49.4939 63.5235 49.4752 63.5812C49.4583 63.639 49.4268 63.6908 49.3843 63.7307C49.3418 63.7707 49.2898 63.7972 49.2342 63.8075C48.4998 63.9153 47.8205 64.2853 47.3058 64.8579C46.791 65.4304 46.4707 66.1723 46.3964 66.964C46.3914 67.0311 46.3673 67.095 46.3275 67.1471C46.2876 67.1991 46.2339 67.2368 46.1735 67.2551L46.0831 67.268ZM33.5089 48.8209L45.9265 66.1619C46.1013 65.4794 46.4363 64.8565 46.8993 64.3525C47.3624 63.8486 47.9381 63.4806 48.5714 63.2836L34.5211 47.7989C34.2808 47.852 34.059 47.9757 33.8803 48.1561C33.7016 48.3365 33.573 48.5667 33.5089 48.8209Z" fill="#231F20"/>
<path d="M46.0892 66.9382L50.4995 69.396L51.0478 68.8463L49.18 63.4777C49.18 63.4777 45.7458 63.109 46.0892 66.9382Z" fill="white"/>
<path d="M50.4995 69.7259C50.4489 69.7268 50.3991 69.7134 50.3549 69.6871L45.9446 67.2292C45.8977 67.2041 45.8576 67.1666 45.8281 67.1202C45.7986 67.0738 45.7806 67.02 45.7759 66.964C45.692 66.4494 45.7184 65.921 45.8531 65.4189C45.9877 64.9168 46.2271 64.4543 46.5531 64.0663C46.9167 63.7307 47.3389 63.476 47.795 63.3172C48.2512 63.1584 48.7322 63.0987 49.2101 63.1414C49.2692 63.1473 49.3254 63.1712 49.3723 63.2101C49.4193 63.249 49.4549 63.3015 49.4752 63.3613L51.3369 68.7299C51.3593 68.7917 51.3638 68.8593 51.3498 68.9239C51.3359 68.9886 51.3041 69.0471 51.2586 69.0921L50.7103 69.6419C50.6519 69.6964 50.5769 69.7263 50.4995 69.7259ZM46.3844 66.7247L50.4452 68.9886L50.6862 68.7557L48.9631 63.8011C48.2425 63.7791 47.5394 64.0414 46.9869 64.5385C46.7449 64.8343 46.5657 65.183 46.4617 65.5605C46.3576 65.938 46.3313 66.3352 46.3844 66.7247Z" fill="#231F20"/>
<path d="M50.4995 69.396L51.343 70.3663L51.7407 69.8812L51.0478 68.8463L50.4995 69.396Z" fill="white"/>
<path d="M51.343 70.7026C51.3006 70.7029 51.2586 70.6932 51.2201 70.6742C51.1816 70.6552 51.1474 70.6274 51.12 70.5926L50.2705 69.6224C50.2157 69.5566 50.1857 69.4713 50.1862 69.3831C50.1908 69.2941 50.2276 69.2106 50.2886 69.1502L50.8369 68.6004C50.8695 68.5687 50.9079 68.5447 50.9498 68.53C50.9916 68.5153 51.0358 68.5103 51.0796 68.5152C51.1233 68.5201 51.1657 68.5348 51.2038 68.5584C51.2419 68.582 51.2749 68.6139 51.3008 68.6522L51.9937 69.6871C52.0377 69.7457 52.0617 69.8188 52.0617 69.8941C52.0617 69.9694 52.0377 70.0424 51.9937 70.101L51.596 70.5862C51.5683 70.6226 51.5334 70.6519 51.4938 70.6721C51.4542 70.6922 51.4109 70.7026 51.3671 70.7026H51.343ZM50.9393 69.409L51.3369 69.8682L50.9935 69.3572L50.9393 69.409Z" fill="#231F20"/>
<path d="M41.9922 68.3546C42.7032 66.8088 44.4866 63.5294 44.8963 62.1064C46.029 58.2255 39.3954 54.5905 37.2505 54.5905C35.1056 54.5905 30.623 62.6368 30.623 66.9381C30.623 71.2394 45.4747 104.175 45.4747 104.175L59.7238 97.1767L41.9922 68.3546Z" fill="#D4A397"/>
<path d="M45.4927 104.512C45.4347 104.512 45.3779 104.494 45.3289 104.461C45.2798 104.428 45.2405 104.38 45.2155 104.324C44.613 102.979 30.3278 71.2589 30.3278 66.9382C30.3278 62.6175 34.8586 54.2542 37.2505 54.2542C38.9013 54.2542 42.7393 56.1428 44.4805 58.6525C44.8659 59.135 45.1351 59.7117 45.2643 60.332C45.3935 60.9523 45.3788 61.5972 45.2216 62.21C44.6471 63.7351 43.9747 65.2155 43.2092 66.6406C42.8899 67.2874 42.6067 67.8696 42.3778 68.3288L60.025 96.9827C60.0496 97.0234 60.0661 97.0691 60.0734 97.117C60.0806 97.1649 60.0785 97.2139 60.0672 97.2608C60.0542 97.3061 60.0325 97.348 60.0034 97.3837C59.9744 97.4193 59.9386 97.448 59.8985 97.4678L45.6433 104.479C45.5981 104.508 45.5449 104.52 45.4927 104.512ZM37.2505 54.9204C35.3647 54.9204 30.9544 62.6821 30.9544 66.9382C30.9544 70.8967 44.1672 100.45 45.6373 103.742L59.2839 97.028L41.7331 68.5681C41.7067 68.5166 41.6929 68.4588 41.6929 68.4C41.6929 68.3412 41.7067 68.2833 41.7331 68.2318C41.962 67.7402 42.2934 67.074 42.6549 66.3496C43.4 64.961 44.0563 63.5196 44.6191 62.0353C44.7462 61.5226 44.7539 60.9843 44.6414 60.4677C44.529 59.951 44.2999 59.4721 43.9744 59.0729C42.2934 56.6215 38.6362 54.9204 37.2505 54.9204Z" fill="#231F20"/>
<path d="M117.805 74.8746L135.368 70.0687C134.765 69.1567 127.68 45.0112 120.209 41.0591C113.672 36.4021 98.1693 33.2974 84.4745 34.3517C84.4745 34.3517 80.8595 34.2094 74.5212 36.9066C59.0851 43.4911 56.1088 66.4207 56.1088 66.4207L68.1588 70.8902C68.1588 70.8902 65.8572 100.547 63.6822 116.051C63.6822 116.051 90.3248 121.646 129.114 114.757C129.144 114.744 117.877 79.26 117.805 74.8746Z" fill="#F07E24"/>
<path d="M116.359 41.7254C114.033 44.3126 112.22 47.4173 109.653 49.8558C104.122 55.1079 96.886 59.267 89.3005 58.7624C80.3594 58.1674 72.6293 51.6087 70.6893 42.0552C69.4843 36.0657 70.7375 30.5031 75.0514 26.273C78.0338 23.3494 81.8536 21.5642 85.7578 20.4517C96.1268 17.4699 107.761 19.0545 116.612 25.5874C118.058 26.543 119.279 27.8446 120.179 29.3906C122.39 33.6919 119.847 38.1161 116.979 41.0721C116.787 41.2726 116.582 41.499 116.359 41.7254Z" fill="#F8B119"/>
<path d="M85.8542 48.504C85.7638 48.504 84.101 50.6773 84.0166 50.7096C84.9625 54.5387 85.9627 59.5257 89.9994 60.0172C98.1874 61.0198 99.4285 49.2995 100.971 43.7693C95.3014 45.4769 91.3008 46.1625 85.8542 48.504Z" fill="#231F20"/>
<path d="M90.9574 60.4053C90.6272 60.4025 90.2974 60.3809 89.9693 60.3407C85.9386 59.8491 84.7999 55.1661 83.878 51.4211L83.7214 50.7743C83.7068 50.7108 83.7105 50.644 83.732 50.5828C83.7536 50.5216 83.7919 50.4688 83.8419 50.4315C83.9383 50.3344 84.3781 49.7847 84.6974 49.3836C85.6313 48.2323 85.6434 48.2258 85.7398 48.1806C89.0747 46.7964 92.4976 45.6703 95.9823 44.8107C97.5186 44.3967 99.1032 43.9698 100.863 43.4394C100.914 43.4239 100.969 43.4235 101.021 43.4383C101.073 43.4531 101.12 43.4825 101.158 43.5235C101.194 43.5654 101.219 43.6165 101.232 43.6719C101.245 43.7274 101.244 43.7854 101.23 43.8404C101.001 44.6619 100.778 45.6321 100.537 46.6605C99.29 52.1973 97.3801 60.3989 90.9574 60.4053ZM84.3299 50.8131L84.4384 51.2594C85.3602 55.0109 86.3965 59.2605 90.0175 59.668C96.7233 60.4894 98.5971 52.3978 99.9708 46.4859C100.158 45.6774 100.338 44.9012 100.519 44.2026C98.9586 44.6619 97.5066 45.05 96.1389 45.4251C92.686 46.2666 89.2949 47.3778 85.9928 48.7497C85.8723 48.8791 85.4506 49.3966 85.1373 49.7911C84.7155 50.3732 84.4805 50.6578 84.348 50.8131H84.3299Z" fill="#231F20"/>
<path d="M93.7831 3.38874C92.5781 3.337 91.8069 3.89972 90.7706 4.30075C88.7522 5.06399 87.8123 3.25291 86.0771 2.28916C83.3452 0.764397 80.2059 0.301709 77.1922 0.979656C74.1786 1.6576 71.4764 3.4344 69.5445 6.00834C68.3423 7.5369 67.5637 9.3969 67.2972 11.3769C67.0441 13.6149 67.6286 15.9046 67.2671 18.1167C67.0461 19.3871 66.5275 20.5763 65.7601 21.5721C64.9928 22.5679 64.0019 23.3376 62.8809 23.8087C64.8097 23.9685 66.7499 23.7716 68.6167 23.2265C68.0801 23.9112 67.4132 24.4646 66.6607 24.8495C65.9083 25.2344 65.0879 25.4419 64.2546 25.458C66.1759 27.0441 68.5368 27.8935 70.9604 27.8706L66.7128 28.9379C70.3278 31.4281 74.732 32.172 78.9917 31.965C87.4749 31.4928 101.682 27.7672 101.435 15.9693C101.296 11.448 98.9827 3.64747 93.7831 3.38874Z" fill="#252222"/>
<path d="M77.5336 32.3466C74.2862 32.3466 70.1289 31.6997 66.526 29.2289C66.4765 29.1936 66.4377 29.1436 66.4142 29.085C66.3907 29.0265 66.3835 28.9619 66.3934 28.899C66.4058 28.8375 66.4337 28.7808 66.4741 28.7352C66.5144 28.6895 66.5658 28.6567 66.6224 28.6403L68.9842 28.0517C67.1864 27.7229 65.4905 26.9281 64.0437 25.7361C63.9931 25.6954 63.9557 25.6386 63.9369 25.5738C63.918 25.509 63.9186 25.4395 63.9386 25.3751C63.9586 25.3107 63.997 25.2547 64.0483 25.215C64.0996 25.1753 64.1612 25.154 64.2244 25.154C65.4615 25.1322 66.656 24.6653 67.6165 23.828C66.0441 24.1781 64.4335 24.2869 62.8326 24.1514C62.7648 24.1448 62.7011 24.1137 62.6519 24.0632C62.6026 24.0127 62.5708 23.9457 62.5615 23.8733C62.5505 23.8001 62.5638 23.725 62.599 23.6612C62.6342 23.5973 62.6892 23.5488 62.7543 23.524C63.8313 23.0792 64.7844 22.3457 65.5226 21.3935C66.2609 20.4413 66.7598 19.3021 66.9718 18.0843C67.1167 16.9217 67.1289 15.7444 67.008 14.5786C66.9138 13.5029 66.9138 12.4202 67.008 11.3445C67.282 9.30309 68.0835 7.38498 69.3216 5.8078C71.2972 3.17574 74.0609 1.35929 77.1428 0.667141C80.2248 -0.0250099 83.435 0.449842 86.2277 2.011C86.741 2.31191 87.2289 2.66036 87.6858 3.05237C88.6618 3.84795 89.433 4.47536 90.6983 4.00318C90.9694 3.89969 91.2224 3.78327 91.4695 3.67331C92.2047 3.27239 93.0187 3.06614 93.8433 3.07177C99.061 3.31756 101.676 10.9112 101.76 15.9692C101.869 21.3313 99.1393 25.555 93.6445 28.511C88.1497 31.4669 81.5945 32.1525 79.0339 32.2948C78.5278 32.3336 78.0397 32.3466 77.5336 32.3466ZM67.4719 29.1125C71.364 31.538 75.8286 31.8614 78.9555 31.6997C81.4619 31.5574 87.8725 30.9171 93.3252 27.9806C98.597 25.1475 101.212 21.1308 101.109 16.0339C101.007 11.2216 98.6031 3.99672 93.771 3.74446C93.036 3.74997 92.3122 3.93815 91.6562 4.29425C91.3972 4.41068 91.1321 4.53357 90.8489 4.63706C89.2884 5.22566 88.3124 4.43008 87.2821 3.58922C86.8539 3.22098 86.3963 2.89414 85.9144 2.61253C83.2456 1.1178 80.1767 0.662477 77.2304 1.32411C74.284 1.98573 71.6423 3.7234 69.7554 6.24116C68.5928 7.71444 67.8355 9.50623 67.5683 11.4157C67.478 12.4461 67.478 13.4834 67.5683 14.5139C67.6908 15.7318 67.6746 16.9612 67.5201 18.1749C67.3297 19.2829 66.9211 20.3344 66.3216 21.2592C65.722 22.1839 64.9454 22.9605 64.0437 23.537C65.546 23.5349 67.0414 23.3173 68.4901 22.8901C68.5525 22.8707 68.619 22.8735 68.6798 22.8979C68.7406 22.9224 68.7924 22.9673 68.8275 23.026C68.8644 23.0817 68.8841 23.1484 68.8841 23.2168C68.8841 23.2851 68.8644 23.3518 68.8275 23.4076C67.8739 24.6255 66.5435 25.4338 65.08 25.6844C66.8225 26.9041 68.8622 27.5432 70.9423 27.5213C71.0167 27.5193 71.089 27.5475 71.1449 27.6002C71.2007 27.653 71.236 27.7265 71.2435 27.8059C71.253 27.8851 71.2349 27.9652 71.1926 28.0309C71.1503 28.0966 71.0869 28.1432 71.0146 28.1617L67.4719 29.1125Z" fill="#231F20"/>
<path d="M83.414 39.5715L84.0165 50.7096C84.0165 50.7096 88.7582 56.5309 94.8615 52.954C100.965 49.3772 100.73 43.7046 100.73 43.7046L96.7233 22.7931C96.7233 22.7931 91.1863 21.4219 89.7764 9.71454C85.0531 13.7295 79.408 16.3015 73.4366 17.1594C73.4366 17.1594 73.5451 30.2573 75.696 35.4642C77.8469 40.671 83.414 39.5715 83.414 39.5715Z" fill="#D4A397"/>
<path d="M90.8549 54.4352C86.7097 54.4352 83.8237 50.9748 83.7876 50.923C83.7429 50.8696 83.7173 50.8008 83.7153 50.729L83.1128 39.9337C81.8415 40.0695 77.3107 40.1989 75.4008 35.5741C73.2499 30.3996 73.1233 17.6768 73.1173 17.1399C73.1178 17.0618 73.1442 16.9865 73.1916 16.9272C73.2391 16.868 73.3045 16.8288 73.3764 16.8165C79.2846 15.9517 84.8709 13.4108 89.5595 9.4558C89.6009 9.4169 89.6514 9.39092 89.7056 9.38065C89.7598 9.37039 89.8155 9.37625 89.8668 9.39758C89.9174 9.41862 89.9618 9.45364 89.9957 9.49908C90.0295 9.54452 90.0516 9.59876 90.0596 9.65631C90.7706 15.5811 92.566 18.744 93.9457 20.3611C94.6913 21.327 95.6714 22.0524 96.7775 22.4568C96.8328 22.4723 96.883 22.5042 96.9224 22.5488C96.9618 22.5934 96.9888 22.6489 97.0004 22.709L101.013 43.6399C101.013 43.7499 101.194 49.6035 94.9881 53.2386C93.7271 54.0071 92.3048 54.4188 90.8549 54.4352ZM84.3057 50.5543C84.9082 51.2594 89.2221 55.8776 94.723 52.65C100.579 49.209 100.435 43.7434 100.435 43.6917L96.4642 22.9936C95.464 22.6379 90.9332 20.4904 89.5535 10.2708C84.9219 14.0266 79.4857 16.4731 73.7439 17.3857C73.7439 19.3262 74.0452 30.6195 75.9671 35.2831C77.9976 40.1859 83.1429 39.261 83.3598 39.2222C83.4015 39.2134 83.4445 39.2141 83.486 39.2241C83.5275 39.2341 83.5666 39.2533 83.6008 39.2804C83.6337 39.3102 83.6607 39.3467 83.6804 39.3877C83.7 39.4288 83.7119 39.4737 83.7153 39.5197L84.3057 50.5543Z" fill="#231F20"/>
<path d="M94.4639 28.6533C95.8795 28.8822 97.3219 28.5008 98.4766 27.5925C99.2563 26.9296 99.8641 26.0628 100.242 25.0751C100.62 24.0874 100.754 23.012 100.634 21.9523C100.596 21.1602 100.39 20.3878 100.031 19.6949C99.8552 19.3483 99.6119 19.0465 99.3176 18.8099C99.0234 18.5733 98.6852 18.4074 98.326 18.3237C97.4362 18.2643 96.5526 18.5162 95.8075 19.0416C94.6387 19.6884 94.6025 20.4064 93.9639 21.4672C94.0362 21.3701 94.0904 21.0985 94.1627 21.0015" fill="#D4A397"/>
<path d="M95.2712 29.0478C94.9848 29.0467 94.6989 29.0229 94.4157 28.9767C94.3361 28.9624 94.2649 28.915 94.2175 28.8448C94.1702 28.7746 94.1505 28.6872 94.1626 28.6015C94.1685 28.5597 94.1821 28.5195 94.2026 28.4833C94.2231 28.4472 94.2502 28.4159 94.2822 28.3911C94.3142 28.3664 94.3505 28.3488 94.389 28.3394C94.4274 28.33 94.4672 28.329 94.5061 28.3363C95.8408 28.5472 97.1991 28.1821 98.2837 27.3208C99.0219 26.6903 99.5965 25.8664 99.9521 24.9284C100.308 23.9904 100.432 22.97 100.314 21.9652C100.29 21.2231 100.107 20.4971 99.7779 19.8437C99.6225 19.5409 99.409 19.2771 99.1514 19.0696C98.8937 18.8622 98.598 18.716 98.2837 18.6406C97.5366 18.4983 96.7895 18.867 95.9581 19.3262C95.3867 19.6246 94.9398 20.1413 94.7049 20.7751C94.5784 21.0209 94.4398 21.299 94.253 21.603C94.2405 21.6293 94.2242 21.6533 94.2048 21.6742C94.1563 21.7385 94.0863 21.7799 94.0098 21.7896C93.9332 21.7993 93.8562 21.7764 93.7951 21.7259C93.7314 21.6777 93.6881 21.6044 93.6745 21.522C93.661 21.4396 93.6783 21.3548 93.7228 21.2861C93.7228 21.2861 93.7228 21.202 93.765 21.1567C93.8003 21.0396 93.851 20.9285 93.9156 20.8268C93.9468 20.7876 93.986 20.7566 94.0301 20.7363L94.1446 20.5034C94.4422 19.7531 94.981 19.1425 95.6629 18.7829C96.3738 18.3884 97.3559 17.845 98.3621 18.0326C98.7711 18.1198 99.1576 18.3014 99.4947 18.565C99.8318 18.8286 100.111 19.1678 100.314 19.5591C100.684 20.2989 100.89 21.1199 100.917 21.9588C101.044 23.0723 100.901 24.2022 100.502 25.2391C100.103 26.276 99.4615 27.1847 98.6392 27.8771C97.661 28.6416 96.4813 29.0517 95.2712 29.0478Z" fill="#231F20"/>
<path d="M83.7274 45.4316C84.9139 45.34 86.0616 44.9385 87.0707 44.2621C88.0798 43.5858 88.9197 42.655 89.5173 41.5507C91.6441 37.741 90.7946 35.3025 90.7946 35.3025C90.7946 35.3025 87.9268 39.2286 83.4141 39.5456L83.7274 45.4316Z" fill="#231F20"/>
<path d="M83.7273 45.7485C83.651 45.7486 83.5777 45.717 83.5227 45.6603C83.4677 45.6037 83.4352 45.5263 83.4321 45.4445L83.1128 39.6232C83.1103 39.5807 83.1157 39.5382 83.1286 39.4979C83.1415 39.4577 83.1617 39.4206 83.188 39.3887C83.2143 39.3569 83.2463 39.3309 83.2819 39.3123C83.3176 39.2937 83.3563 39.2829 83.3959 39.2804C87.7159 38.9829 90.5295 35.2055 90.5597 35.1667C90.5924 35.121 90.6359 35.0855 90.6857 35.0639C90.7354 35.0422 90.7897 35.0353 90.8428 35.0438C90.8954 35.0535 90.9446 35.0776 90.9858 35.1139C91.027 35.1502 91.0587 35.1974 91.0778 35.2508C91.114 35.3543 91.9514 37.8768 89.7704 41.7771C89.1496 42.9243 88.2751 43.8897 87.2243 44.5879C86.1735 45.2862 84.9787 45.696 83.7454 45.7809L83.7273 45.7485ZM83.7273 39.8625L84.0105 45.0823C85.0866 44.94 86.1181 44.5348 87.0257 43.898C87.9333 43.2611 88.6929 42.4095 89.2462 41.4084C90.6862 38.8212 90.7223 36.9325 90.6139 36.0269C88.8099 38.135 86.3715 39.4931 83.7273 39.8625Z" fill="#231F20"/>
<path d="M82.6188 21.8682C82.6188 21.8682 80.3595 28.2587 81.3837 29.0219C82.408 29.7852 84.5709 28.5692 84.5709 28.5692" fill="#D4A397"/>
<path d="M82.2754 29.5976C81.8985 29.6162 81.5256 29.5076 81.209 29.2872C80.0763 28.4463 81.8115 23.3106 82.3296 21.7518C82.358 21.6724 82.4144 21.6081 82.4866 21.573C82.5588 21.5379 82.6409 21.5347 82.7152 21.5642C82.7526 21.5793 82.7868 21.6021 82.8158 21.6315C82.8449 21.6608 82.8682 21.6961 82.8845 21.7352C82.9007 21.7743 82.9096 21.8165 82.9105 21.8593C82.9115 21.9021 82.9045 21.9447 82.89 21.9846C81.8416 24.9535 81.0825 28.3881 81.5524 28.7503C82.2694 29.2807 83.8721 28.5951 84.4264 28.2846C84.4977 28.2454 84.5804 28.2377 84.6569 28.2631C84.7335 28.2885 84.7977 28.3449 84.8361 28.4204C84.8718 28.4968 84.8779 28.5853 84.8531 28.6665C84.8282 28.7477 84.7745 28.815 84.7035 28.8538C83.953 29.2853 83.125 29.5389 82.2754 29.5976Z" fill="#231F20"/>
<path d="M87.0629 21.7065C87.522 21.5472 87.7241 20.8531 87.5143 20.1563C87.3045 19.4595 86.7623 19.0237 86.3032 19.183C85.8441 19.3423 85.642 20.0363 85.8518 20.7332C86.0615 21.43 86.6038 21.8657 87.0629 21.7065Z" fill="#231F20"/>
<path d="M78.6337 23.8225C79.1162 23.8154 79.4997 23.2161 79.4904 22.4838C79.4812 21.7516 79.0825 21.1637 78.6001 21.1708C78.1177 21.1778 77.7341 21.7771 77.7434 22.5094C77.7527 23.2416 78.1513 23.8295 78.6337 23.8225Z" fill="#231F20"/>
<path d="M83.3358 37.23C82.7572 37.2462 82.1883 37.0676 81.7091 36.719C79.8112 35.2314 79.6726 31.9456 79.6666 31.8033C79.6649 31.7268 79.688 31.6521 79.732 31.5919C79.776 31.5318 79.838 31.4899 79.9076 31.4734C87.7039 29.6429 87.7883 29.7076 87.9268 29.8175C87.9612 29.8454 87.9901 29.8804 88.0119 29.9203C88.0336 29.9603 88.0477 30.0045 88.0534 30.0504C88.174 31.3545 88.0068 32.6707 87.5653 33.8925C87.2999 34.6415 86.8794 35.3159 86.3356 35.865C85.7918 36.414 85.139 36.8233 84.4263 37.0618C84.0718 37.1719 83.7048 37.2285 83.3358 37.23ZM80.2932 32.0555C80.3655 32.8382 80.6908 35.1279 82.0525 36.1886C82.3767 36.4023 82.7409 36.5363 83.119 36.581C83.4971 36.6257 83.8798 36.5801 84.2395 36.4474C84.8676 36.2375 85.4432 35.8776 85.9232 35.3948C86.4032 34.912 86.7751 34.3188 87.011 33.6596C87.3839 32.631 87.5403 31.5266 87.4689 30.4255C86.4326 30.6261 82.7755 31.4669 80.2932 32.049V32.0555Z" fill="#231F20"/>
<path d="M87.2881 33.789C86.1313 36.7902 83.2333 37.5082 81.8656 36.4668C82.1729 35.3219 82.7332 34.1318 83.7755 33.6984C84.9192 33.2796 86.1645 33.3117 87.2881 33.789Z" fill="#231F20"/>
<path d="M83.3357 37.2235C82.7578 37.2408 82.1893 37.0644 81.709 36.719C81.6593 36.6802 81.6221 36.6256 81.6027 36.563C81.5832 36.5004 81.5825 36.4328 81.6005 36.3697C82.0102 34.7915 82.7152 33.7825 83.6852 33.3879C84.8912 32.9479 86.2029 32.9776 87.3905 33.472C87.429 33.4871 87.4643 33.5104 87.4943 33.5404C87.5243 33.5703 87.5484 33.6065 87.5652 33.6466C87.5951 33.7277 87.5951 33.8179 87.5652 33.8989C87.2982 34.6462 86.8771 35.3189 86.3335 35.8667C85.7899 36.4145 85.1379 36.823 84.4262 37.0618C84.0714 37.1694 83.7044 37.2238 83.3357 37.2235ZM82.2392 36.3115C82.8656 36.6292 83.582 36.6756 84.2395 36.4409C84.8165 36.2514 85.3497 35.9334 85.8045 35.5077C86.2592 35.0819 86.6251 34.558 86.8784 33.97C85.9123 33.6253 84.8682 33.6253 83.9021 33.97C83.161 34.2934 82.6188 35.0826 82.2392 36.3115Z" fill="#231F20"/>
<path d="M73.1535 27.0297C72.7412 27.0296 72.3413 26.8781 72.0202 26.6005C71.6991 26.3228 71.4761 25.9357 71.3881 25.5033L70.7555 22.418C70.6534 21.9153 70.7414 21.3898 71.0001 20.9568C71.2588 20.5238 71.6671 20.2188 72.1352 20.1088L78.8531 18.5241C79.0854 18.4689 79.3255 18.4634 79.5597 18.508C79.7939 18.5526 80.0177 18.6464 80.218 18.784C80.4184 18.9216 80.5915 19.1003 80.7275 19.3099C80.8634 19.5195 80.9594 19.7558 81.0101 20.0053L81.6126 23.0906C81.7101 23.5868 81.6228 24.1042 81.3695 24.5321C81.1161 24.9601 80.7168 25.2645 80.257 25.3804L73.5391 26.9586C73.4136 26.9983 73.2841 27.0222 73.1535 27.0297ZM79.2448 19.1515C79.1586 19.142 79.0718 19.142 78.9857 19.1515L72.2738 20.7298C71.9674 20.8056 71.7008 21.007 71.5308 21.291C71.3608 21.575 71.301 21.9191 71.364 22.2498L71.9967 25.3804C72.0687 25.7067 72.2559 25.9904 72.5189 26.1714C72.782 26.3524 73.1002 26.4166 73.4065 26.3506L80.1244 24.7335C80.4284 24.6563 80.6926 24.4552 80.8612 24.1729C81.0298 23.8905 81.0897 23.5488 81.0282 23.22L80.4257 20.1347C80.3651 19.8528 80.2182 19.6008 80.0084 19.4191C79.7987 19.2373 79.5383 19.1363 79.2689 19.1321L79.2448 19.1515Z" fill="#231F20"/>
<path d="M85.1252 24.2161C84.7789 24.2152 84.4401 24.1074 84.1491 23.9057C83.7465 23.6284 83.4627 23.1911 83.3599 22.6897L82.7574 19.6044C82.654 19.1021 82.7407 18.5763 82.9984 18.1426C83.1264 17.9267 83.2929 17.7401 83.4883 17.5936C83.6837 17.447 83.9042 17.3434 84.1371 17.2888L90.8489 15.7105C91.0812 15.6553 91.3213 15.6498 91.5555 15.6944C91.7897 15.739 92.0135 15.8328 92.2138 15.9704C92.4142 16.108 92.5873 16.2868 92.7233 16.4963C92.8592 16.7059 92.9552 16.9422 93.0059 17.1917L93.6084 20.277C93.7132 20.7761 93.6301 21.2993 93.3774 21.7329C93.1247 22.1666 92.7226 22.4756 92.2588 22.5926L85.5469 24.1709C85.408 24.2003 85.2668 24.2155 85.1252 24.2161ZM91.2165 16.325C91.1293 16.3262 91.0425 16.337 90.9574 16.3574L84.2455 17.942C84.0927 17.9765 83.9479 18.0435 83.8196 18.139C83.6912 18.2345 83.5821 18.3567 83.4985 18.4983C83.3287 18.7843 83.2702 19.1303 83.3358 19.4621L83.9684 22.5474C84.0404 22.8737 84.2276 23.1573 84.4907 23.3384C84.7537 23.5194 85.0719 23.5836 85.3783 23.5176L92.0961 21.9394C92.4033 21.8658 92.6714 21.6661 92.8432 21.3831C93.0109 21.0962 93.0672 20.7502 92.9999 20.4193L92.3974 17.334C92.337 17.0466 92.187 16.7899 91.9723 16.6065C91.7576 16.423 91.4909 16.3237 91.2165 16.325Z" fill="#231F20"/>
<path d="M80.7028 20.4129C80.6477 20.4141 80.5933 20.3984 80.5462 20.3676C80.4759 20.323 80.4247 20.2507 80.4033 20.1662C80.3819 20.0816 80.3921 19.9914 80.4317 19.9148C80.7149 19.3909 81.6367 18.5695 83.149 19.2227C83.2289 19.2553 83.2935 19.3207 83.3285 19.4044C83.3635 19.4881 83.3661 19.5833 83.3358 19.669C83.3054 19.7548 83.2446 19.8241 83.1666 19.8617C83.0886 19.8993 82.9999 19.9021 82.9201 19.8696C81.5704 19.2874 81.0282 20.1736 80.974 20.277C80.9425 20.3217 80.9014 20.3575 80.8541 20.3812C80.8069 20.4048 80.7549 20.4157 80.7028 20.4129Z" fill="#231F20"/>
<path d="M20.6818 106.517H144.556L164.432 145.487H0.805298L20.6818 106.517Z" fill="#BA8C63"/>
<path d="M164.431 145.811H0.804494C0.752614 145.81 0.70165 145.796 0.656349 145.769C0.611047 145.742 0.572884 145.703 0.545418 145.655C0.520105 145.606 0.506836 145.55 0.506836 145.494C0.506836 145.437 0.520105 145.382 0.545418 145.332L20.4279 106.361C20.4534 106.31 20.4917 106.267 20.5384 106.237C20.5852 106.208 20.6387 106.192 20.693 106.193H144.549C144.603 106.192 144.657 106.208 144.704 106.237C144.75 106.267 144.789 106.31 144.814 106.361L164.697 145.332C164.722 145.382 164.735 145.437 164.735 145.494C164.735 145.55 164.722 145.606 164.697 145.655C164.669 145.704 164.629 145.743 164.583 145.77C164.537 145.798 164.484 145.811 164.431 145.811ZM1.31662 145.164H163.919L144.374 106.84H20.8617L1.31662 145.164Z" fill="#D1D3D4"/>
<path d="M22.6038 81.375L22.8689 80.1461C23.4714 78.9172 24.1401 78.0892 25.6946 78.0892H84.6613C85.3741 78.0905 86.0674 78.3394 86.6376 78.7988C87.2077 79.2581 87.6241 79.9032 87.8244 80.6377L97.4101 115.993C97.6575 116.751 97.6263 117.581 97.323 118.316C97.0196 119.05 96.4669 119.633 95.7774 119.945L94.735 120.21L22.6038 81.375Z" fill="white"/>
<path d="M94.7351 120.533C94.6894 120.532 94.6444 120.521 94.6026 120.501L22.4713 81.6532C22.4104 81.6213 22.3616 81.5679 22.3331 81.5019C22.3046 81.436 22.2981 81.3615 22.3146 81.291L22.5797 80.062C22.5771 80.0341 22.5771 80.0059 22.5797 79.978C23.1822 78.8072 23.8751 77.7529 25.6705 77.7529H84.6372C85.4148 77.7563 86.1706 78.0287 86.7925 78.5297C87.4144 79.0308 87.8693 79.7337 88.0896 80.5342L97.6814 115.934C97.9508 116.77 97.9139 117.684 97.5781 118.491C97.2424 119.299 96.6331 119.938 95.8738 120.281L94.7954 120.559L94.7351 120.533ZM22.9713 81.2004L94.7954 119.867L95.7292 119.634C97.1813 119.026 97.4825 117.364 97.1391 116.083L87.5533 80.7283C87.3695 80.0621 86.9908 79.4772 86.4732 79.0601C85.9555 78.643 85.3266 78.416 84.6794 78.4127H25.6946C24.3631 78.4127 23.7907 79.0595 23.1521 80.2626L22.9713 81.2004Z" fill="#231F20"/>
<path d="M94.7351 120.21H34.5634C34.1546 120.205 33.7581 120.059 33.4325 119.793C33.107 119.528 32.8698 119.157 32.7559 118.735L22.6279 81.3751C22.5897 81.2318 22.583 81.0809 22.6083 80.9343C22.6336 80.7877 22.6902 80.6494 22.7737 80.5303C22.8572 80.4112 22.9653 80.3145 23.0895 80.2479C23.2137 80.1812 23.3506 80.1464 23.4895 80.1461H85.2698L95.7353 118.78C95.7814 118.947 95.7905 119.123 95.7619 119.294C95.7333 119.465 95.6677 119.626 95.5705 119.765C95.4733 119.904 95.3471 120.017 95.202 120.094C95.0569 120.171 94.897 120.211 94.7351 120.21Z" fill="#333333"/>
<path d="M94.7349 120.533H34.5633C34.0858 120.531 33.6218 120.363 33.2399 120.056C32.8579 119.748 32.5783 119.317 32.4425 118.826L22.3145 81.4656C22.2655 81.2746 22.2582 81.074 22.2929 80.8794C22.3276 80.6848 22.4034 80.5014 22.5146 80.3433C22.6258 80.1852 22.7694 80.0566 22.9342 79.9674C23.099 79.8783 23.2807 79.831 23.4652 79.8291H85.2697C85.3335 79.828 85.396 79.8496 85.4472 79.8906C85.4984 79.9315 85.5356 79.9895 85.5528 80.0555L96.0243 118.69C96.0822 118.904 96.0928 119.131 96.0553 119.351C96.0178 119.571 95.9331 119.778 95.8081 119.957C95.6831 120.136 95.521 120.281 95.3348 120.381C95.1485 120.481 94.9432 120.533 94.7349 120.533ZM23.4652 80.4695C23.3735 80.471 23.2834 80.495 23.2017 80.5396C23.1199 80.5842 23.0487 80.6482 22.9935 80.7268C22.9383 80.8054 22.9006 80.8965 22.8831 80.9932C22.8657 81.0898 22.869 81.1894 22.8929 81.2845L33.0149 118.644C33.1145 119.003 33.3189 119.317 33.5978 119.54C33.8766 119.764 34.2152 119.885 34.5633 119.886H94.7349C94.8514 119.887 94.9664 119.859 95.0709 119.804C95.1754 119.749 95.2667 119.669 95.3374 119.569C95.4056 119.47 95.4513 119.356 95.4712 119.235C95.4911 119.113 95.4845 118.989 95.4519 118.871L85.0287 80.4695H23.4652Z" fill="#231F20"/>
<path d="M84.6432 104.292L80.986 120.986C80.7925 121.879 80.3225 122.676 79.6528 123.246C78.9831 123.816 78.1532 124.125 77.2987 124.123H39.2388C38.6675 124.123 38.1037 123.984 37.5895 123.716C37.0753 123.449 36.624 123.061 36.2693 122.58C35.9147 122.099 35.666 121.538 35.5417 120.94C35.4174 120.341 35.4207 119.72 35.5515 119.123L38.7749 104.292H35.6238L32.539 118.36C32.3062 119.443 32.3039 120.569 32.5324 121.653C32.7608 122.738 33.2142 123.753 33.8586 124.623C34.5031 125.493 35.322 126.196 36.2546 126.68C37.1871 127.163 38.2092 127.414 39.2448 127.415H77.3289C78.8721 127.414 80.3699 126.855 81.581 125.828C82.7921 124.802 83.6458 123.367 84.0046 121.756L87.8244 104.292H84.6432Z" fill="white"/>
<path d="M77.2987 127.784H39.2387C38.1551 127.784 37.0856 127.52 36.1102 127.014C35.1348 126.507 34.2787 125.77 33.606 124.858C32.9333 123.946 32.4613 122.883 32.2254 121.747C31.9895 120.612 31.9957 119.434 32.2437 118.302L35.3225 104.227C35.3387 104.156 35.3767 104.094 35.4303 104.049C35.4839 104.004 35.5499 103.981 35.6177 103.981H38.7989C38.8441 103.982 38.8886 103.993 38.9292 104.015C38.9698 104.036 39.0055 104.066 39.0339 104.104C39.0615 104.142 39.0808 104.186 39.0902 104.233C39.0996 104.28 39.0989 104.329 39.0881 104.376L35.8406 119.207C35.7209 119.757 35.7184 120.329 35.8333 120.88C35.9482 121.431 36.1775 121.948 36.5042 122.39C36.8309 122.833 37.2465 123.191 37.72 123.437C38.1934 123.683 38.7126 123.812 39.2387 123.813H77.3228C78.1102 123.814 78.8749 123.529 79.4921 123.004C80.1092 122.479 80.5424 121.745 80.7209 120.921L84.378 104.227C84.3931 104.157 84.4299 104.094 84.4825 104.05C84.535 104.005 84.6002 103.981 84.6672 103.981H87.8484C87.8934 103.982 87.9376 103.994 87.9779 104.015C88.0183 104.036 88.0538 104.067 88.0819 104.104C88.1101 104.142 88.1302 104.186 88.1409 104.233C88.1515 104.28 88.1525 104.328 88.1437 104.376L84.3178 121.84C83.9499 123.539 83.0546 125.053 81.779 126.133C80.5034 127.213 78.9234 127.796 77.2987 127.784ZM35.8286 104.628L32.8161 118.45C32.5875 119.489 32.5813 120.57 32.7978 121.612C33.0142 122.654 33.4478 123.629 34.066 124.465C34.6841 125.301 35.4707 125.976 36.3666 126.439C37.2625 126.902 38.2445 127.14 39.2387 127.137H77.3228C78.8085 127.142 80.2517 126.605 81.4163 125.614C82.5808 124.624 83.3977 123.238 83.7334 121.685L87.4689 104.628H84.9082L81.2932 121.07C81.0866 122.037 80.5797 122.899 79.8558 123.515C79.132 124.131 78.2344 124.464 77.3107 124.459H39.2387C38.6215 124.46 38.0122 124.31 37.4566 124.021C36.9009 123.733 36.4133 123.313 36.0302 122.793C35.6471 122.274 35.3784 121.668 35.2444 121.021C35.1104 120.374 35.1144 119.703 35.2562 119.058L38.4133 104.628H35.8286Z" fill="#231F20"/>
<path d="M133.723 70.2498C133.723 70.2498 139.109 95.9283 134.699 102.487C130.289 109.046 99.4888 108.011 99.4888 108.011C99.4888 108.011 94.494 114.447 90.156 114.02C85.818 113.593 88.3485 104.783 93.4517 101.116L92.7468 98.0564L119.901 93.3799L116.286 74.9263" fill="#D4A397"/>
<path d="M90.5537 114.363C90.4051 114.363 90.2545 114.363 90.1018 114.363C89.5404 114.332 89.0041 114.103 88.5768 113.711C88.1495 113.319 87.8552 112.786 87.74 112.196C87.0592 109.33 89.2403 103.865 93.0782 100.993L92.4275 98.1534C92.4169 98.1109 92.4146 98.0666 92.4209 98.0232C92.4271 97.9798 92.4416 97.9382 92.4636 97.9011C92.4864 97.8631 92.5164 97.8307 92.5517 97.8062C92.5871 97.7817 92.6269 97.7655 92.6685 97.7588L119.51 93.1341L115.955 75.0233C115.947 74.9817 115.947 74.9388 115.954 74.8971C115.962 74.8554 115.977 74.8157 115.999 74.7803C116.021 74.7448 116.049 74.7144 116.082 74.6906C116.114 74.6668 116.151 74.6502 116.19 74.6417C116.228 74.6322 116.268 74.6311 116.307 74.6384C116.346 74.6457 116.383 74.6612 116.416 74.6841C116.449 74.707 116.478 74.7368 116.5 74.7718C116.522 74.8067 116.538 74.846 116.546 74.8875L120.161 93.3411C120.169 93.3844 120.17 93.4293 120.161 93.4727C120.153 93.5162 120.136 93.5573 120.112 93.5934C120.09 93.6294 120.06 93.6601 120.026 93.6835C119.992 93.7069 119.954 93.7224 119.914 93.7292L93.0842 98.3539L93.6867 101.071C93.7022 101.134 93.6989 101.201 93.6773 101.263C93.6557 101.324 93.6169 101.377 93.5662 101.413C89.8789 104.065 87.6677 109.401 88.3004 112.053C88.3815 112.511 88.6042 112.925 88.9324 113.229C89.2605 113.533 89.6747 113.709 90.1079 113.729C94.235 114.143 99.1454 107.907 99.1815 107.836C99.2108 107.798 99.2477 107.768 99.2895 107.748C99.3312 107.728 99.3767 107.718 99.4225 107.72C99.7298 107.72 130.15 108.671 134.404 102.325C138.657 95.9801 133.44 70.6315 133.385 70.3533C133.377 70.3109 133.376 70.267 133.383 70.2242C133.39 70.1814 133.405 70.1405 133.427 70.1038C133.449 70.0672 133.477 70.0355 133.51 70.0106C133.543 69.9857 133.581 69.9681 133.62 69.9588C133.66 69.9494 133.701 69.9486 133.741 69.9562C133.781 69.9638 133.819 69.9798 133.853 70.0032C133.887 70.0266 133.916 70.057 133.94 70.0927C133.963 70.1284 133.979 70.1686 133.988 70.211C134.211 71.2653 139.35 96.0836 134.91 102.707C130.572 109.175 102.14 108.451 99.5671 108.367C98.8863 109.22 94.5905 114.363 90.5537 114.363Z" fill="#231F20"/>
<path d="M101.411 57.5335C101.364 57.5327 101.319 57.5194 101.278 57.4947C101.241 57.4767 101.208 57.4509 101.181 57.4188C101.153 57.3867 101.132 57.3489 101.119 57.3079C101.105 57.2668 101.099 57.2232 101.102 57.1797C101.105 57.1363 101.115 57.0938 101.134 57.0549C105.508 47.3527 116.738 40.8263 116.853 40.7616C116.888 40.7404 116.927 40.727 116.968 40.7223C117.008 40.7177 117.049 40.7218 117.088 40.7345C117.126 40.7472 117.162 40.7681 117.194 40.7961C117.225 40.8242 117.25 40.8586 117.269 40.8975C117.288 40.936 117.301 40.9784 117.305 41.0222C117.31 41.066 117.306 41.1103 117.294 41.1525C117.282 41.1947 117.263 41.234 117.237 41.2679C117.211 41.3019 117.178 41.3299 117.142 41.3502C117.034 41.4149 105.978 47.8184 101.694 57.3459C101.667 57.4021 101.627 57.4494 101.577 57.4825C101.527 57.5155 101.469 57.5332 101.411 57.5335Z" fill="#231F20"/>
<path d="M82.8416 57.0742C82.7979 57.084 82.7528 57.084 82.7091 57.0742C72.2135 51.8997 70.9423 40.5287 70.9302 40.4188C70.9218 40.3305 70.9462 40.2422 70.9981 40.1731C71.05 40.1041 71.1252 40.0599 71.2074 40.0501C71.2478 40.0447 71.2888 40.0479 71.328 40.0597C71.3672 40.0714 71.4038 40.0914 71.4358 40.1185C71.4677 40.1456 71.4944 40.1792 71.5141 40.2174C71.5338 40.2557 71.5463 40.2977 71.5508 40.3411C71.5508 40.4511 72.804 51.4534 82.9983 56.408C83.0728 56.4447 83.131 56.5114 83.1603 56.5936C83.1896 56.6758 83.1876 56.7671 83.1549 56.8478C83.1319 56.9164 83.0891 56.9754 83.0328 57.0161C82.9765 57.0568 82.9095 57.0772 82.8416 57.0742Z" fill="#231F20"/>
<path d="M35.0213 71.7375C34.9558 71.7175 34.8983 71.675 34.8573 71.6167C34.8163 71.5583 34.7941 71.4872 34.7941 71.4141C34.7941 71.341 34.8163 71.2699 34.8573 71.2116C34.8983 71.1532 34.9558 71.1108 35.0213 71.0907C39.5642 70.942 41.7693 68.1865 41.7934 68.1607C41.8191 68.127 41.8507 68.0991 41.8864 68.0786C41.9221 68.0581 41.9612 68.0454 42.0016 68.0412C42.0419 68.037 42.0826 68.0413 42.1213 68.0541C42.16 68.0668 42.196 68.0877 42.2272 68.1154C42.291 68.1721 42.3312 68.2536 42.3391 68.3421C42.347 68.4306 42.3219 68.5188 42.2694 68.5876C42.173 68.7104 39.8594 71.6017 35.0394 71.757L35.0213 71.7375Z" fill="#231F20"/>
<path d="M116.25 75.2562C116.181 75.2568 116.113 75.2322 116.059 75.1864C116.004 75.1406 115.965 75.0763 115.949 75.0039C115.949 74.8875 113.111 62.9667 112.72 55.8194C112.717 55.7761 112.723 55.7327 112.736 55.6916C112.749 55.6506 112.77 55.6128 112.797 55.5803C112.824 55.5479 112.856 55.5215 112.893 55.5026C112.929 55.4836 112.968 55.4726 113.009 55.4702C113.091 55.4648 113.172 55.4944 113.234 55.5525C113.296 55.6106 113.334 55.6925 113.34 55.7806C113.732 62.8632 116.527 74.7193 116.552 74.8422C116.572 74.928 116.56 75.0188 116.518 75.0951C116.476 75.1714 116.408 75.2269 116.329 75.2497L116.25 75.2562Z" fill="#231F20"/>
<path d="M67.6889 77.3842C67.6479 77.3817 67.6079 77.3705 67.5711 77.3512C67.5342 77.3319 67.5014 77.3049 67.4744 77.2717C67.4475 77.2386 67.427 77.2 67.4142 77.1582C67.4013 77.1164 67.3964 77.0723 67.3997 77.0284L68.8939 51.8997C68.8961 51.8558 68.9066 51.8128 68.9246 51.7733C68.9426 51.7337 68.9677 51.6985 68.9986 51.6695C69.0295 51.6406 69.0655 51.6186 69.1044 51.6048C69.1433 51.591 69.1844 51.5857 69.2252 51.5893C69.2659 51.5909 69.3058 51.6013 69.3426 51.6199C69.3794 51.6385 69.4123 51.6649 69.4393 51.6976C69.4664 51.7302 69.4869 51.7684 69.4998 51.8098C69.5128 51.8512 69.5177 51.895 69.5144 51.9385L67.9961 77.0672C67.993 77.1525 67.9593 77.2331 67.902 77.2922C67.8447 77.3513 67.7683 77.3842 67.6889 77.3842Z" fill="#231F20"/>
<path d="M121.034 63.3289C120.978 63.3297 120.923 63.3137 120.875 63.2829C120.828 63.252 120.789 63.2075 120.763 63.1543L117.847 57.333C117.814 57.248 117.814 57.1527 117.847 57.0678C117.875 56.9809 117.933 56.909 118.01 56.8673L127.047 52.2813C127.084 52.2616 127.124 52.25 127.165 52.2472C127.206 52.2444 127.247 52.2504 127.285 52.2648C127.324 52.2793 127.36 52.3019 127.39 52.3314C127.421 52.3609 127.445 52.3967 127.463 52.4366C127.498 52.5164 127.503 52.6081 127.476 52.6916C127.449 52.7751 127.392 52.8438 127.318 52.8829L118.558 57.32L121.197 62.5722L130.072 59.6615C130.111 59.6488 130.153 59.6445 130.194 59.649C130.235 59.6535 130.275 59.6666 130.311 59.6876C130.347 59.7086 130.38 59.7371 130.406 59.7715C130.432 59.8059 130.451 59.8454 130.463 59.8879C130.475 59.9304 130.479 59.9749 130.475 60.019C130.471 60.0631 130.458 60.1059 130.439 60.145C130.419 60.184 130.393 60.2185 130.361 60.2466C130.329 60.2746 130.292 60.2956 130.252 60.3083L121.124 63.3354L121.034 63.3289Z" fill="#231F20"/>
<path d="M128.861 137.137C137.076 137.137 143.736 134.985 143.736 132.331C143.736 129.677 137.076 127.525 128.861 127.525C120.645 127.525 113.985 129.677 113.985 132.331C113.985 134.985 120.645 137.137 128.861 137.137Z" fill="#E8E8E8"/>
<path d="M128.861 137.46C120.353 137.46 113.684 135.209 113.684 132.331C113.684 129.453 120.353 127.202 128.861 127.202C137.368 127.202 144.038 129.453 144.038 132.331C144.038 135.209 137.368 137.46 128.861 137.46ZM128.861 127.849C120.142 127.849 114.286 130.164 114.286 132.331C114.286 134.498 120.142 136.813 128.861 136.813C137.579 136.813 143.435 134.498 143.435 132.331C143.435 130.164 137.579 127.849 128.861 127.849Z" fill="#FBFEFF"/>
<path d="M117.648 118.606L117.293 118.677C116.218 118.849 115.239 119.441 114.545 120.339C114.156 120.977 113.941 121.72 113.926 122.482C113.91 123.245 114.093 123.997 114.455 124.653C116.033 127.706 119.877 128.534 122.842 128.851C123.261 128.925 123.691 128.889 124.095 128.748C124.294 128.675 124.468 128.537 124.592 128.354C124.716 128.171 124.784 127.952 124.788 127.726C124.762 127.54 124.694 127.364 124.589 127.213C124.483 127.063 124.345 126.943 124.185 126.865C123.875 126.711 123.543 126.611 123.203 126.568C121.36 126.245 119.42 126.005 117.732 125.093C116.75 124.556 115.377 123.334 116.094 122.014C116.345 121.597 116.705 121.268 117.13 121.07C118.823 120.203 120.432 120.863 122.101 121.393C122.222 121.441 122.351 121.461 122.48 121.452C122.64 121.405 122.778 121.296 122.868 121.147C122.958 120.998 122.993 120.819 122.968 120.643C122.914 119.861 122.185 119.35 121.498 119.058C120.272 118.558 118.946 118.403 117.648 118.606Z" fill="white"/>
<path d="M123.342 129.207C123.167 129.206 122.992 129.195 122.818 129.175C118.293 128.715 115.473 127.292 114.19 124.809C113.799 124.098 113.602 123.284 113.623 122.459C113.643 121.634 113.879 120.832 114.304 120.145C115.043 119.184 116.085 118.549 117.232 118.36L117.606 118.289C118.963 118.071 120.349 118.234 121.631 118.761C122.233 119 123.215 119.563 123.294 120.617C123.324 120.875 123.264 121.136 123.126 121.35C122.989 121.563 122.782 121.715 122.546 121.775C122.375 121.787 122.203 121.763 122.04 121.704L121.607 121.562C120.124 121.076 118.727 120.624 117.287 121.361C116.913 121.531 116.596 121.817 116.377 122.183C116.298 122.316 116.248 122.466 116.228 122.622C116.208 122.778 116.22 122.937 116.262 123.088C116.593 123.852 117.171 124.462 117.889 124.802C119.385 125.501 120.972 125.95 122.595 126.135L123.275 126.251C123.65 126.295 124.014 126.407 124.354 126.581C124.596 126.679 124.802 126.857 124.943 127.09C125.083 127.324 125.149 127.599 125.132 127.876C125.116 128.153 125.016 128.417 124.849 128.629C124.681 128.84 124.455 128.989 124.203 129.052C123.927 129.159 123.635 129.212 123.342 129.207ZM117.696 118.929L117.353 118.994C116.352 119.154 115.44 119.698 114.786 120.527C114.431 121.116 114.236 121.8 114.224 122.502C114.213 123.204 114.384 123.896 114.72 124.498C115.895 126.775 118.564 128.094 122.872 128.528C123.242 128.593 123.621 128.567 123.98 128.45C124.12 128.399 124.243 128.305 124.333 128.18C124.423 128.054 124.476 127.903 124.486 127.745C124.467 127.616 124.418 127.495 124.345 127.391C124.271 127.287 124.175 127.205 124.065 127.15C123.785 127.013 123.485 126.925 123.179 126.891L122.498 126.775C120.814 126.583 119.168 126.111 117.618 125.378C116.75 124.963 116.06 124.212 115.684 123.276C115.618 123.039 115.599 122.789 115.629 122.544C115.66 122.299 115.738 122.063 115.859 121.853C116.138 121.376 116.545 121.001 117.028 120.779C118.678 119.932 120.257 120.443 121.781 120.941L122.215 121.083C122.296 121.115 122.382 121.13 122.468 121.128C122.613 121.128 122.703 120.863 122.691 120.669C122.643 119.945 121.781 119.518 121.414 119.375C120.23 118.89 118.95 118.741 117.696 118.942V118.929Z" fill="#231F20"/>
<path d="M119.04 115.333C119.04 115.333 121.823 130.248 122.052 131.147C122.281 132.046 128.861 135.74 134.102 132.111L138.687 116.866L119.04 115.333Z" fill="#D8D8D8"/>
<path d="M128.975 134.006C127.4 133.992 125.841 133.672 124.372 133.062C123.215 132.583 121.902 131.807 121.757 131.231C121.534 130.332 118.859 116.012 118.745 115.397C118.734 115.349 118.734 115.298 118.745 115.25C118.756 115.201 118.778 115.157 118.809 115.119C118.84 115.082 118.878 115.053 118.922 115.035C118.965 115.017 119.012 115.01 119.058 115.016L138.706 116.581C138.751 116.583 138.796 116.597 138.836 116.621C138.876 116.645 138.91 116.679 138.936 116.72C138.962 116.761 138.978 116.808 138.984 116.856C138.99 116.905 138.986 116.955 138.971 117.002L134.386 132.247C134.363 132.317 134.318 132.377 134.259 132.415C132.68 133.488 130.843 134.041 128.975 134.006ZM119.413 115.689C119.865 118.114 122.143 130.268 122.342 131.063C122.426 131.277 123.51 132.143 125.432 132.771C127.24 133.36 130.698 134.026 133.867 131.904L138.302 117.163L119.413 115.689Z" fill="#231F20"/>
<path d="M138.735 116.203C138.831 113.676 134.503 111.433 129.067 111.193C123.631 110.954 119.146 112.808 119.049 115.335C118.953 117.862 123.281 120.105 128.717 120.345C134.153 120.584 138.638 118.73 138.735 116.203Z" fill="#333333"/>
<path d="M129.656 120.688C129.337 120.688 129.017 120.688 128.698 120.688C123.004 120.443 118.63 118.101 118.739 115.346C118.847 112.59 123.384 110.65 129.072 110.902C134.759 111.154 139.133 113.489 139.025 116.245C138.977 117.603 137.82 118.832 135.826 119.634C133.845 120.381 131.755 120.738 129.656 120.688ZM128.144 111.497C123.366 111.497 119.419 113.179 119.335 115.378C119.251 117.681 123.553 119.822 128.722 120.048C131.069 120.195 133.42 119.841 135.639 119.007C137.386 118.289 138.41 117.26 138.452 116.193C138.543 113.884 134.235 111.743 129.072 111.517L128.144 111.497Z" fill="#231F20"/>
<path d="M105.315 73.8914H73.4366C73.3567 73.8914 73.2801 73.8573 73.2236 73.7967C73.1671 73.736 73.1354 73.6538 73.1354 73.568V63.4648C73.1369 63.3795 73.1692 63.2982 73.2253 63.2379C73.2815 63.1776 73.3572 63.143 73.4366 63.1414H105.315C105.395 63.1414 105.471 63.1754 105.528 63.2361C105.584 63.2967 105.616 63.379 105.616 63.4648V73.5874C105.612 73.6698 105.578 73.7471 105.522 73.8036C105.466 73.8602 105.392 73.8915 105.315 73.8914ZM73.7379 73.2446H105.014V63.7882H73.7379V73.2446Z" fill="white"/>
<path d="M164.426 145.487H0.805298V152.259H164.426V145.487Z" fill="#BA8C63"/>
<path d="M164.928 152.419H1.30125C1.22135 152.419 1.14473 152.385 1.08823 152.324C1.03174 152.264 1 152.181 1 152.096V145.323C1.00154 145.238 1.03378 145.157 1.08994 145.097C1.14611 145.036 1.22184 145.002 1.30125 145H164.928C165.008 145.002 165.083 145.036 165.14 145.097C165.196 145.157 165.228 145.238 165.23 145.323V152.096C165.23 152.181 165.198 152.264 165.141 152.324C165.085 152.385 165.008 152.419 164.928 152.419ZM1.6025 151.772H164.627V145.647H1.6025V151.772Z" fill="#BA8C63"/>
<path d="M138.681 82.2418C138.602 82.2384 138.527 82.2022 138.472 82.1407C138.417 82.0792 138.386 81.9972 138.386 81.9119C138.386 81.168 138.826 63.6329 140.628 57.5593C142.429 51.4858 145.809 48.9567 145.948 48.8597C146.014 48.8117 146.095 48.7939 146.174 48.8103C146.252 48.8266 146.322 48.8758 146.366 48.947C146.411 49.0182 146.428 49.1056 146.412 49.1899C146.397 49.2742 146.351 49.3485 146.285 49.3966C146.249 49.3966 142.953 51.848 141.2 57.7534C139.447 63.6588 138.995 81.7437 138.989 81.9248C138.988 81.9673 138.979 82.0092 138.964 82.0481C138.948 82.087 138.925 82.1222 138.896 82.1516C138.868 82.1811 138.834 82.2042 138.797 82.2196C138.76 82.2351 138.721 82.2426 138.681 82.2418Z" fill="white"/>
</svg>
