<svg width="162" height="68" viewBox="0 0 162 68" fill="none" xmlns="http://www.w3.org/2000/svg">
<g filter="url(#filter0_d)">
<circle cx="34" cy="30" r="26" stroke="url(#paint0_linear)" stroke-width="8"/>
</g>
<rect x="34" y="14" width="82" height="31" fill="white"/>
<path d="M40.008 28.2C40.68 28.2 41.192 28.048 41.544 27.744C41.912 27.424 42.096 26.944 42.096 26.304C42.096 25.696 41.904 25.232 41.52 24.912C41.152 24.576 40.608 24.408 39.888 24.408C39.632 24.408 39.416 24.416 39.24 24.432C39.08 24.432 38.912 24.448 38.736 24.48V28.2H40.008ZM38.76 35.904C38.584 35.952 38.304 36 37.92 36.048C37.552 36.096 37.184 36.12 36.816 36.12C36.448 36.12 36.12 36.088 35.832 36.024C35.56 35.976 35.328 35.88 35.136 35.736C34.944 35.592 34.8 35.392 34.704 35.136C34.608 34.88 34.56 34.544 34.56 34.128V22.824C34.56 22.488 34.648 22.232 34.824 22.056C35.016 21.864 35.272 21.712 35.592 21.6C36.136 21.408 36.752 21.272 37.44 21.192C38.144 21.096 38.848 21.048 39.552 21.048C41.76 21.048 43.448 21.52 44.616 22.464C45.784 23.408 46.368 24.688 46.368 26.304C46.368 27.088 46.24 27.8 45.984 28.44C45.744 29.064 45.376 29.608 44.88 30.072C44.4 30.52 43.784 30.872 43.032 31.128C42.296 31.368 41.44 31.488 40.464 31.488H38.76V35.904ZM51.8046 35.976C51.6446 36.024 51.3886 36.072 51.0366 36.12C50.7006 36.168 50.3486 36.192 49.9806 36.192C49.6286 36.192 49.3086 36.168 49.0206 36.12C48.7486 36.072 48.5166 35.976 48.3246 35.832C48.1326 35.688 47.9806 35.496 47.8686 35.256C47.7726 35 47.7246 34.672 47.7246 34.272V27.072C47.7246 26.704 47.7886 26.392 47.9166 26.136C48.0606 25.864 48.2606 25.624 48.5166 25.416C48.7726 25.208 49.0846 25.024 49.4526 24.864C49.8366 24.688 50.2446 24.536 50.6766 24.408C51.1086 24.28 51.5566 24.184 52.0206 24.12C52.4846 24.04 52.9486 24 53.4126 24C54.1806 24 54.7886 24.152 55.2366 24.456C55.6846 24.744 55.9086 25.224 55.9086 25.896C55.9086 26.12 55.8766 26.344 55.8126 26.568C55.7486 26.776 55.6686 26.968 55.5726 27.144C55.2366 27.144 54.8926 27.16 54.5406 27.192C54.1886 27.224 53.8446 27.272 53.5086 27.336C53.1726 27.4 52.8526 27.472 52.5486 27.552C52.2606 27.616 52.0126 27.696 51.8046 27.792V35.976ZM69.2184 30.168C69.2184 31.16 69.0664 32.048 68.7624 32.832C68.4584 33.6 68.0264 34.248 67.4664 34.776C66.9224 35.304 66.2664 35.704 65.4984 35.976C64.7304 36.248 63.8744 36.384 62.9304 36.384C61.9864 36.384 61.1304 36.24 60.3624 35.952C59.5944 35.664 58.9304 35.256 58.3704 34.728C57.8264 34.184 57.4024 33.528 57.0984 32.76C56.7944 31.992 56.6424 31.128 56.6424 30.168C56.6424 29.224 56.7944 28.368 57.0984 27.6C57.4024 26.832 57.8264 26.184 58.3704 25.656C58.9304 25.112 59.5944 24.696 60.3624 24.408C61.1304 24.12 61.9864 23.976 62.9304 23.976C63.8744 23.976 64.7304 24.128 65.4984 24.432C66.2664 24.72 66.9224 25.136 67.4664 25.68C68.0264 26.208 68.4584 26.856 68.7624 27.624C69.0664 28.392 69.2184 29.24 69.2184 30.168ZM60.8184 30.168C60.8184 31.144 61.0024 31.896 61.3704 32.424C61.7544 32.936 62.2824 33.192 62.9544 33.192C63.6264 33.192 64.1384 32.928 64.4904 32.4C64.8584 31.872 65.0424 31.128 65.0424 30.168C65.0424 29.208 64.8584 28.472 64.4904 27.96C64.1224 27.432 63.6024 27.168 62.9304 27.168C62.2584 27.168 61.7384 27.432 61.3704 27.96C61.0024 28.472 60.8184 29.208 60.8184 30.168ZM75.2889 31.992C75.2889 32.408 75.4169 32.704 75.6729 32.88C75.9449 33.056 76.3209 33.144 76.8009 33.144C77.0409 33.144 77.2889 33.128 77.5449 33.096C77.8009 33.048 78.0249 32.992 78.2169 32.928C78.3609 33.104 78.4809 33.304 78.5769 33.528C78.6889 33.736 78.7449 33.992 78.7449 34.296C78.7449 34.904 78.5129 35.4 78.0489 35.784C77.6009 36.168 76.8009 36.36 75.6489 36.36C74.2409 36.36 73.1529 36.04 72.3849 35.4C71.6329 34.76 71.2569 33.72 71.2569 32.28V22.008C71.4329 21.96 71.6809 21.912 72.0009 21.864C72.3369 21.8 72.6889 21.768 73.0569 21.768C73.7609 21.768 74.3049 21.896 74.6889 22.152C75.0889 22.392 75.2889 22.912 75.2889 23.712V25.248H78.4329C78.5289 25.424 78.6169 25.648 78.6969 25.92C78.7929 26.176 78.8409 26.464 78.8409 26.784C78.8409 27.344 78.7129 27.752 78.4569 28.008C78.2169 28.248 77.8889 28.368 77.4729 28.368H75.2889V31.992ZM80.8663 24.336C80.8663 23.52 81.0023 22.824 81.2743 22.248C81.5623 21.656 81.9463 21.176 82.4263 20.808C82.9063 20.424 83.4663 20.144 84.1063 19.968C84.7623 19.792 85.4583 19.704 86.1943 19.704C87.3783 19.704 88.2503 19.864 88.8103 20.184C89.3703 20.488 89.6503 21.016 89.6503 21.768C89.6503 22.088 89.5783 22.376 89.4343 22.632C89.3063 22.888 89.1623 23.08 89.0023 23.208C88.6983 23.128 88.3783 23.064 88.0423 23.016C87.7223 22.952 87.3463 22.92 86.9143 22.92C86.2263 22.92 85.6903 23.04 85.3063 23.28C84.9223 23.504 84.7303 23.904 84.7303 24.48V25.248H88.6663C88.7623 25.424 88.8503 25.648 88.9303 25.92C89.0263 26.176 89.0743 26.464 89.0743 26.784C89.0743 27.344 88.9463 27.752 88.6903 28.008C88.4503 28.248 88.1223 28.368 87.7063 28.368H84.9463V35.976C84.7863 36.024 84.5303 36.072 84.1783 36.12C83.8423 36.168 83.4903 36.192 83.1223 36.192C82.7703 36.192 82.4503 36.168 82.1623 36.12C81.8903 36.072 81.6583 35.976 81.4663 35.832C81.2743 35.688 81.1223 35.496 81.0103 35.256C80.9143 35 80.8663 34.672 80.8663 34.272V24.336ZM90.9703 21.096C90.9703 20.488 91.1703 19.976 91.5703 19.56C91.9863 19.144 92.5303 18.936 93.2023 18.936C93.8743 18.936 94.4103 19.144 94.8103 19.56C95.2263 19.976 95.4343 20.488 95.4343 21.096C95.4343 21.704 95.2263 22.216 94.8103 22.632C94.4103 23.048 93.8743 23.256 93.2023 23.256C92.5303 23.256 91.9863 23.048 91.5703 22.632C91.1703 22.216 90.9703 21.704 90.9703 21.096ZM95.2423 35.976C95.0663 36.008 94.8023 36.048 94.4503 36.096C94.1143 36.16 93.7703 36.192 93.4183 36.192C93.0663 36.192 92.7463 36.168 92.4583 36.12C92.1863 36.072 91.9543 35.976 91.7623 35.832C91.5703 35.688 91.4183 35.496 91.3063 35.256C91.2103 35 91.1623 34.672 91.1623 34.272V24.504C91.3383 24.472 91.5943 24.432 91.9303 24.384C92.2823 24.32 92.6343 24.288 92.9863 24.288C93.3383 24.288 93.6503 24.312 93.9223 24.36C94.2103 24.408 94.4503 24.504 94.6423 24.648C94.8343 24.792 94.9783 24.992 95.0743 25.248C95.1863 25.488 95.2423 25.808 95.2423 26.208V35.976ZM101.986 35.976C101.81 36.008 101.546 36.048 101.194 36.096C100.858 36.16 100.514 36.192 100.162 36.192C99.8099 36.192 99.4899 36.168 99.2019 36.12C98.9299 36.072 98.6979 35.976 98.5059 35.832C98.3139 35.688 98.1619 35.496 98.0499 35.256C97.9539 35 97.9059 34.672 97.9059 34.272V20.352C98.0819 20.32 98.3379 20.28 98.6739 20.232C99.0259 20.168 99.3779 20.136 99.7299 20.136C100.082 20.136 100.394 20.16 100.666 20.208C100.954 20.256 101.194 20.352 101.386 20.496C101.578 20.64 101.722 20.84 101.818 21.096C101.93 21.336 101.986 21.656 101.986 22.056V35.976ZM110.729 36.384C109.785 36.384 108.905 36.256 108.089 36C107.289 35.728 106.585 35.328 105.977 34.8C105.385 34.272 104.913 33.608 104.561 32.808C104.225 32.008 104.057 31.072 104.057 30C104.057 28.944 104.225 28.04 104.561 27.288C104.913 26.52 105.369 25.896 105.929 25.416C106.489 24.92 107.129 24.56 107.849 24.336C108.569 24.096 109.305 23.976 110.057 23.976C110.905 23.976 111.673 24.104 112.361 24.36C113.065 24.616 113.665 24.968 114.161 25.416C114.673 25.864 115.065 26.4 115.337 27.024C115.625 27.648 115.769 28.328 115.769 29.064C115.769 29.608 115.617 30.024 115.312 30.312C115.009 30.6 114.585 30.784 114.041 30.864L108.113 31.752C108.289 32.28 108.649 32.68 109.193 32.952C109.737 33.208 110.361 33.336 111.065 33.336C111.721 33.336 112.337 33.256 112.913 33.096C113.505 32.92 113.985 32.72 114.353 32.496C114.609 32.656 114.825 32.88 115.001 33.168C115.177 33.456 115.265 33.76 115.265 34.08C115.265 34.8 114.929 35.336 114.257 35.688C113.745 35.96 113.169 36.144 112.529 36.24C111.889 36.336 111.289 36.384 110.729 36.384ZM110.057 26.952C109.673 26.952 109.337 27.016 109.049 27.144C108.777 27.272 108.553 27.44 108.377 27.648C108.201 27.84 108.065 28.064 107.969 28.32C107.889 28.56 107.841 28.808 107.825 29.064L111.929 28.392C111.881 28.072 111.705 27.752 111.401 27.432C111.097 27.112 110.649 26.952 110.057 26.952Z" fill="#535353"/>
<defs>
<filter id="filter0_d" x="0" y="0" width="68" height="68" filterUnits="userSpaceOnUse" color-interpolation-filters="sRGB">
<feFlood flood-opacity="0" result="BackgroundImageFix"/>
<feColorMatrix in="SourceAlpha" type="matrix" values="0 0 0 0 0 0 0 0 0 0 0 0 0 0 0 0 0 0 127 0"/>
<feOffset dy="4"/>
<feGaussianBlur stdDeviation="2"/>
<feColorMatrix type="matrix" values="0 0 0 0 0 0 0 0 0 0 0 0 0 0 0 0 0 0 0.25 0"/>
<feBlend mode="normal" in2="BackgroundImageFix" result="effect1_dropShadow"/>
<feBlend mode="normal" in="SourceGraphic" in2="effect1_dropShadow" result="shape"/>
</filter>
<linearGradient id="paint0_linear" x1="34" y1="-1.63913e-07" x2="23" y2="127.5" gradientUnits="userSpaceOnUse">
<stop stop-color="#F07E24"/>
<stop offset="1" stop-color="#F8B119" stop-opacity="0.84"/>
</linearGradient>
</defs>
</svg>
