<svg width="70" height="70" viewBox="0 0 70 70" fill="none" xmlns="http://www.w3.org/2000/svg">
<g clip-path="url(#clip0)">
<path d="M35 27.7074C33.3517 27.708 31.7407 28.1361 30.3705 28.9378C29.0004 29.7394 27.9326 30.8786 27.3023 32.2111C26.6719 33.5437 26.5073 35.0099 26.8293 36.4244C27.1512 37.8388 27.9452 39.138 29.1109 40.1576C30.2766 41.1772 31.7617 41.8715 33.3783 42.1527C34.9949 42.4338 36.6705 42.2892 38.1933 41.7372C39.716 41.1852 41.0175 40.2505 41.9331 39.0513C42.8488 37.8521 43.3375 36.4422 43.3375 35C43.3358 33.0659 42.4568 31.2114 40.8935 29.844C39.3302 28.4766 37.2104 27.7081 35 27.7074ZM54.4859 22.102C54.0616 21.1611 53.4209 20.3066 52.6036 19.5914C51.7862 18.8762 50.8096 18.3156 49.7344 17.9443C46.4531 16.8109 38.6406 17.0652 35 17.0652C31.3594 17.0652 23.5547 16.8014 20.2641 17.9443C19.1888 18.3156 18.2122 18.8762 17.3949 19.5914C16.5775 20.3066 15.9368 21.1611 15.5125 22.102C14.2188 24.973 14.5078 31.8158 14.5078 34.9986C14.5078 38.1814 14.2188 45.016 15.5188 47.8967C15.943 48.8375 16.5837 49.692 17.4011 50.4072C18.2185 51.1224 19.1951 51.683 20.2703 52.0543C23.5516 53.1877 31.3641 52.9334 35.0062 52.9334C38.6484 52.9334 46.45 53.1973 49.7406 52.0543C50.8159 51.683 51.7925 51.1224 52.6098 50.4072C53.4272 49.692 54.0679 48.8375 54.4922 47.8967C55.7969 45.0256 55.4969 38.1828 55.4969 35C55.4969 31.8172 55.7969 24.984 54.4922 22.1033L54.4859 22.102ZM35 46.2109C32.4659 46.2109 29.9888 45.5534 27.8818 44.3216C25.7748 43.0897 24.1325 41.3388 23.1628 39.2902C22.193 37.2417 21.9393 34.9876 22.4337 32.8129C22.9281 30.6381 24.1483 28.6405 25.9402 27.0727C27.7321 25.5048 30.015 24.4371 32.5004 24.0045C34.9858 23.5719 37.562 23.7939 39.9031 24.6424C42.2443 25.491 44.2453 26.9279 45.6532 28.7715C47.0611 30.6152 47.8125 32.7827 47.8125 35C47.8146 36.4727 47.4846 37.9314 46.8414 39.2924C46.1982 40.6534 45.2546 41.89 44.0644 42.9313C42.8742 43.9727 41.461 44.7985 39.9056 45.3612C38.3502 45.924 36.6831 46.2127 35 46.2109ZM48.3406 25.9355C47.7491 25.9358 47.1707 25.7826 46.6787 25.4952C46.1867 25.2078 45.8031 24.7992 45.5765 24.3211C45.3499 23.843 45.2905 23.3168 45.4057 22.8091C45.5209 22.3014 45.8056 21.835 46.2238 21.4689C46.642 21.1028 47.1749 20.8534 47.755 20.7523C48.3352 20.6513 48.9366 20.703 49.4832 20.901C50.0297 21.099 50.4969 21.4344 50.8256 21.8648C51.1543 22.2952 51.3297 22.8011 51.3297 23.3188C51.3313 23.6625 51.2554 24.0031 51.1063 24.3211C50.9571 24.6391 50.7377 24.9282 50.4606 25.1718C50.1834 25.4155 49.8541 25.6088 49.4914 25.7408C49.1286 25.8728 48.7397 25.9408 48.3469 25.941L48.3406 25.9355ZM62.5 4.375H7.5C5.51088 4.375 3.60322 5.0664 2.1967 6.29711C0.790176 7.52782 0 9.19702 0 10.9375L0 59.0625C0 60.803 0.790176 62.4722 2.1967 63.7029C3.60322 64.9336 5.51088 65.625 7.5 65.625H62.5C64.4891 65.625 66.3968 64.9336 67.8033 63.7029C69.2098 62.4722 70 60.803 70 59.0625V10.9375C70 9.19702 69.2098 7.52782 67.8033 6.29711C66.3968 5.0664 64.4891 4.375 62.5 4.375ZM59.825 44.0234C59.6234 47.5275 58.7094 50.6324 55.7859 53.1836C52.8625 55.7348 49.3172 56.551 45.3172 56.7178C41.1906 56.9215 28.8188 56.9215 24.6922 56.7178C20.6875 56.5414 17.1516 55.7402 14.2234 53.1836C11.2953 50.627 10.375 47.5207 10.1844 44.0234C9.95156 40.4113 9.95156 29.5846 10.1844 25.9766C10.3859 22.4725 11.2891 19.3676 14.2234 16.8164C17.1578 14.2652 20.7031 13.4586 24.6922 13.2918C28.8188 13.0881 41.1906 13.0881 45.3172 13.2918C49.3219 13.4682 52.8688 14.2693 55.7859 16.826C58.7031 19.3826 59.6344 22.4889 59.825 25.993C60.0578 29.5914 60.0578 40.4086 59.825 44.0234Z" fill="#686868"/>
</g>
<defs>
<clipPath id="clip0">
<rect width="70" height="70" fill="white"/>
</clipPath>
</defs>
</svg>
