<svg width="334" height="684" viewBox="0 0 334 684" fill="none" xmlns="http://www.w3.org/2000/svg">
<path d="M354.536 397.831C440.49 523.953 542.704 578.765 583.066 590.407L634.666 593.571C623.608 547.873 601.321 450.1 600.642 424.595C599.793 392.714 580.498 277.685 549.191 179.436C517.884 81.1862 446.564 -52.9472 422.917 -132.752C403.999 -196.597 335.546 -285.295 303.684 -321.664L-1.77257e-06 -190.216C52.2738 -197.225 157.684 -174.289 161.136 -26.4709C165.45 158.302 232.609 38.2971 313.852 164.845C395.094 291.394 247.094 240.179 354.536 397.831Z" fill="url(#paint0_linear)"/>
<defs>
<linearGradient id="paint0_linear" x1="232.388" y1="246.844" x2="542.303" y2="82.059" gradientUnits="userSpaceOnUse">
<stop stop-color="#F07E24" stop-opacity="0.47"/>
<stop offset="0.682292" stop-color="#F8B119"/>
</linearGradient>
</defs>
</svg>
